<svg width="8" height="14" viewBox="0 0 8 14" fill="none" xmlns="http://www.w3.org/2000/svg">
<path d="M6.80074 -2.76566e-05C6.96192 0.0053978 7.12029 0.043684 7.26614 0.112484C7.412 0.181284 7.54227 0.279149 7.64896 0.400078C7.87374 0.625138 8 0.930217 8 1.2483C8 1.56639 7.87374 1.87147 7.64896 2.09653L2.8477 6.8978L7.64896 11.6991C7.74391 11.9295 7.76474 12.1839 7.70857 12.4267C7.6524 12.6696 7.52202 12.8889 7.33552 13.0543C7.14902 13.2197 6.91566 13.3229 6.66782 13.3496C6.41999 13.3764 6.16999 13.3253 5.95252 13.2035L0.351037 7.60198C0.126257 7.37692 0 7.07184 0 6.75376C0 6.43567 0.126257 6.13059 0.351037 5.90553L5.95252 0.400078C6.05921 0.279149 6.18948 0.181284 6.33533 0.112484C6.48119 0.043684 6.63956 0.0053978 6.80074 -2.76566e-05Z" fill="#4B4DED" fill-opacity="0.64"/>
</svg>
