<svg width="14" height="12" viewBox="0 0 14 12" fill="none" xmlns="http://www.w3.org/2000/svg">
<mask id="path-1-inside-1_646_726" fill="white">
<path fill-rule="evenodd" clip-rule="evenodd" d="M14 0V1.67L9 6.429V12H5V6.429L0 1.669V0H14ZM6 6V11H8V6L13 1.24V1H1V1.24L6 6Z"/>
</mask>
<path fill-rule="evenodd" clip-rule="evenodd" d="M14 0V1.67L9 6.429V12H5V6.429L0 1.669V0H14ZM6 6V11H8V6L13 1.24V1H1V1.24L6 6Z" fill="#1315BA"/>
<path d="M14 0H16V-2H14V0ZM14 1.67L15.3789 3.1187L16 2.5275V1.67H14ZM9 6.429L7.62113 4.9803L7 5.5715V6.429H9ZM9 12V14H11V12H9ZM5 12H3V14H5V12ZM5 6.429H7V5.57162L6.37902 4.98045L5 6.429ZM0 1.669H-2V2.52638L-1.37902 3.11755L0 1.669ZM0 0V-2H-2V0H0ZM6 6H8V5.14262L7.37902 4.55145L6 6ZM6 11H4V13H6V11ZM8 11V13H10V11H8ZM8 6L6.62098 4.55145L6 5.14262V6H8ZM13 1.24L14.379 2.68855L15 2.09738V1.24H13ZM13 1H15V-1H13V1ZM1 1V-1H-1V1H1ZM1 1.24H-1V2.09738L-0.379021 2.68855L1 1.24ZM12 0V1.67H16V0H12ZM12.6211 0.221304L7.62113 4.9803L10.3789 7.8777L15.3789 3.1187L12.6211 0.221304ZM7 6.429V12H11V6.429H7ZM9 10H5V14H9V10ZM7 12V6.429H3V12H7ZM6.37902 4.98045L1.37902 0.220448L-1.37902 3.11755L3.62098 7.87755L6.37902 4.98045ZM2 1.669V0H-2V1.669H2ZM0 2H14V-2H0V2ZM4 6V11H8V6H4ZM6 13H8V9H6V13ZM10 11V6H6V11H10ZM9.37902 7.44855L14.379 2.68855L11.621 -0.208551L6.62098 4.55145L9.37902 7.44855ZM15 1.24V1H11V1.24H15ZM13 -1H1V3H13V-1ZM-1 1V1.24H3V1H-1ZM-0.379021 2.68855L4.62098 7.44855L7.37902 4.55145L2.37902 -0.208551L-0.379021 2.68855Z" fill="#1315BA" mask="url(#path-1-inside-1_646_726)"/>
</svg>
