<svg width="20" height="20" viewBox="0 0 20 20" fill="none" xmlns="http://www.w3.org/2000/svg">
<path fill-rule="evenodd" clip-rule="evenodd" d="M5.2488 3.83421C5.44763 3.68897 5.69602 3.62866 5.93931 3.66656C6.18261 3.70445 6.40088 3.83744 6.54612 4.03627L12.8909 12.7222L13.7571 7.15263C13.7759 7.03201 13.8182 6.91628 13.8818 6.81203C13.9453 6.70778 14.0287 6.61706 14.1273 6.54506C14.2258 6.47305 14.3376 6.42116 14.4563 6.39236C14.5749 6.36356 14.698 6.35841 14.8187 6.37719C14.9393 6.39598 15.055 6.43834 15.1593 6.50186C15.2635 6.56538 15.3542 6.6488 15.4262 6.74738C15.4982 6.84596 15.5501 6.95775 15.5789 7.07638C15.6077 7.195 15.6129 7.31814 15.5941 7.43876L14.3817 15.2227C14.363 15.3434 14.3208 15.4592 14.2573 15.5635C14.1938 15.6678 14.1104 15.7586 14.0118 15.8306C13.9132 15.9027 13.8013 15.9545 13.6826 15.9833C13.5639 16.012 13.4408 16.0171 13.3201 15.9981L5.5362 14.7857C5.41558 14.7669 5.29985 14.7246 5.1956 14.661C5.09135 14.5975 5.00063 14.5141 4.92863 14.4155C4.85662 14.3169 4.80474 14.2051 4.77593 14.0865C4.74713 13.9679 4.74198 13.8448 4.76077 13.7241C4.79871 13.4805 4.93187 13.262 5.13095 13.1166C5.22953 13.0446 5.34132 12.9927 5.45995 12.9639C5.57857 12.9351 5.70171 12.9299 5.82233 12.9487L11.3915 13.8175L5.04673 5.13152C4.90149 4.93269 4.84119 4.68431 4.87909 4.44102C4.91698 4.19772 5.04997 3.97944 5.2488 3.83421Z" fill="#FC0646"/>
</svg>
