<svg width="20" height="21" viewBox="0 0 20 21" fill="none" xmlns="http://www.w3.org/2000/svg">
<path d="M9.35852 20.8324C9.75284 20.8233 10.1313 20.6751 10.4268 20.4139C10.7224 20.1527 10.916 19.7954 10.9735 19.4052H7.68091C7.74005 19.806 7.94277 20.1717 8.25136 20.4342C8.55995 20.6968 8.9534 20.8383 9.35852 20.8324Z" fill="black" fill-opacity="0.36"/>
<path d="M18.654 16.9827L18.4412 16.7949C17.8374 16.257 17.3089 15.64 16.87 14.9608C16.3906 14.0234 16.1033 12.9998 16.0249 11.9499V8.85756C16.0224 8.48194 15.9889 8.10718 15.9248 7.73707C14.8645 7.51912 13.912 6.94146 13.2287 6.10188C12.5454 5.2623 12.1732 4.21239 12.1752 3.12989V2.73553C11.5216 2.4139 10.8194 2.20239 10.097 2.10956V1.32083C10.097 1.09919 10.0089 0.886637 9.8522 0.729917C9.69548 0.573197 9.48292 0.485153 9.26129 0.485153C9.03965 0.485153 8.8271 0.573197 8.67038 0.729917C8.51366 0.886637 8.42561 1.09919 8.42561 1.32083V2.14086C6.80792 2.36906 5.3274 3.1748 4.25739 4.40934C3.18738 5.64388 2.60013 7.22385 2.60405 8.85756V11.9499C2.52565 12.9998 2.23834 14.0234 1.75899 14.9608C1.32762 15.6383 0.807629 16.2552 0.212831 16.7949L0 16.9827V18.748H18.654V16.9827Z" fill="black" fill-opacity="0.36"/>
<path d="M16.8701 6.25974C18.5987 6.25974 20 4.85845 20 3.12987C20 1.40129 18.5987 0 16.8701 0C15.1415 0 13.7402 1.40129 13.7402 3.12987C13.7402 4.85845 15.1415 6.25974 16.8701 6.25974Z" fill="#DD2025"/>
</svg>
