<svg width="16" height="17" viewBox="0 0 16 17" fill="none" xmlns="http://www.w3.org/2000/svg">
<path d="M1.76935 0H9.7314C10.2007 0 10.6507 0.179107 10.9825 0.497918C11.3143 0.81673 11.5007 1.24913 11.5007 1.7V2.55C11.5007 2.77543 11.4075 2.99163 11.2416 3.15104C11.0757 3.31045 10.8507 3.4 10.6161 3.4C10.3814 3.4 10.1564 3.31045 9.99051 3.15104C9.8246 2.99163 9.7314 2.77543 9.7314 2.55V1.7H1.76935V15.3H9.7314V14.45C9.7314 14.2246 9.8246 14.0084 9.99051 13.849C10.1564 13.6896 10.3814 13.6 10.6161 13.6C10.8507 13.6 11.0757 13.6896 11.2416 13.849C11.4075 14.0084 11.5007 14.2246 11.5007 14.45V15.3C11.5007 15.7509 11.3143 16.1833 10.9825 16.5021C10.6507 16.8209 10.2007 17 9.7314 17H1.76935C1.30009 17 0.850046 16.8209 0.518229 16.5021C0.186413 16.1833 0 15.7509 0 15.3V1.7C0 1.24913 0.186413 0.81673 0.518229 0.497918C0.850046 0.179107 1.30009 0 1.76935 0Z" fill="white"/>
<path d="M11.3194 12.1507C11.6644 12.4822 12.2217 12.4822 12.5668 12.1507L15.741 9.10089C15.9068 8.94149 16 8.72533 16 8.49994C16 8.27455 15.9068 8.05838 15.741 7.89899L12.5668 4.84919C12.3986 4.70315 12.1784 4.62478 11.9518 4.63028C11.7252 4.63577 11.5095 4.72471 11.3492 4.87872C11.1889 5.03272 11.0964 5.24 11.0906 5.45773C11.0849 5.67545 11.1665 5.88696 11.3185 6.04854L12.9781 7.64994H5.30801C5.07338 7.64994 4.84836 7.73949 4.68245 7.8989C4.51655 8.0583 4.42334 8.2745 4.42334 8.49994C4.42334 8.72537 4.51655 8.94157 4.68245 9.10098C4.84836 9.26038 5.07338 9.34994 5.30801 9.34994H12.9781L11.3185 10.9513C11.1533 11.1106 11.0607 11.3264 11.0609 11.5512C11.061 11.776 11.154 11.9916 11.3194 12.1507Z" fill="white"/>
</svg>
