<svg width="631" height="291" viewBox="0 0 631 291" fill="none" xmlns="http://www.w3.org/2000/svg">
<rect width="631" height="291" fill="#E5E5E5"/>
<g clip-path="url(#clip0_418_138)">
<rect width="1280" height="720" transform="translate(-488 -334)" fill="white"/>
<rect x="1" y="1" width="629" height="289" fill="white" stroke="#4B4DED" stroke-width="2"/>
<rect x="2.5" y="1.5" width="628" height="39" fill="#4B4DED" fill-opacity="0.39" stroke="#4B4DED"/>
<path d="M14.548 26V14.12H23.458V16.118H17.032V19.07H22.09V20.978H17.032V24.002H23.71V26H14.548ZM25.6866 26V17H27.9006L28.0446 19.7L27.7386 19.412C27.8826 18.824 28.1106 18.338 28.4226 17.954C28.7346 17.57 29.1126 17.288 29.5566 17.108C30.0126 16.916 30.5106 16.82 31.0506 16.82C31.6746 16.82 32.2266 16.94 32.7066 17.18C33.1986 17.42 33.5826 17.786 33.8586 18.278C34.1466 18.758 34.2906 19.364 34.2906 20.096V26H31.8246V20.798C31.8246 20.03 31.6746 19.502 31.3746 19.214C31.0746 18.914 30.6846 18.764 30.2046 18.764C29.8686 18.764 29.5386 18.848 29.2146 19.016C28.9026 19.172 28.6446 19.43 28.4406 19.79C28.2486 20.15 28.1526 20.63 28.1526 21.23V26H25.6866ZM39.9468 14.246V23.066C39.9468 23.498 40.0548 23.816 40.2708 24.02C40.4988 24.212 40.8048 24.308 41.1888 24.308C41.4888 24.308 41.7528 24.266 41.9808 24.182C42.2088 24.086 42.4128 23.96 42.5928 23.804L42.9888 25.442C42.7008 25.67 42.3408 25.85 41.9088 25.982C41.4768 26.114 41.0208 26.18 40.5408 26.18C39.9408 26.18 39.4068 26.09 38.9388 25.91C38.4828 25.73 38.1228 25.442 37.8588 25.046C37.6068 24.65 37.4808 24.122 37.4808 23.462V14.93L39.9468 14.246ZM42.8268 17V18.836H35.8248V17H42.8268ZM48.6712 26.18C47.7232 26.18 46.8952 25.994 46.1872 25.622C45.4912 25.25 44.9512 24.716 44.5672 24.02C44.1832 23.324 43.9912 22.484 43.9912 21.5C43.9912 20.516 44.1832 19.676 44.5672 18.98C44.9512 18.284 45.4852 17.75 46.1692 17.378C46.8652 17.006 47.6572 16.82 48.5452 16.82C49.4572 16.82 50.2312 17.006 50.8672 17.378C51.5032 17.738 51.9892 18.236 52.3252 18.872C52.6612 19.496 52.8292 20.21 52.8292 21.014C52.8292 21.254 52.8232 21.482 52.8112 21.698C52.7992 21.914 52.7812 22.106 52.7572 22.274H45.5752V20.564H51.6772L50.4892 20.996C50.4892 20.24 50.3152 19.658 49.9672 19.25C49.6312 18.842 49.1512 18.638 48.5272 18.638C48.0712 18.638 47.6752 18.746 47.3392 18.962C47.0152 19.178 46.7692 19.502 46.6012 19.934C46.4332 20.354 46.3492 20.888 46.3492 21.536C46.3492 22.172 46.4392 22.7 46.6192 23.12C46.8112 23.528 47.0752 23.834 47.4112 24.038C47.7592 24.242 48.1732 24.344 48.6532 24.344C49.1812 24.344 49.6072 24.242 49.9312 24.038C50.2552 23.834 50.5072 23.552 50.6872 23.192L52.6492 23.948C52.4572 24.416 52.1632 24.818 51.7672 25.154C51.3832 25.49 50.9212 25.748 50.3812 25.928C49.8532 26.096 49.2832 26.18 48.6712 26.18ZM54.919 26V17H57.061L57.223 18.764C57.463 18.14 57.811 17.66 58.267 17.324C58.735 16.988 59.317 16.82 60.013 16.82C60.217 16.82 60.403 16.838 60.571 16.874C60.739 16.91 60.877 16.958 60.985 17.018L60.697 19.088C60.577 19.04 60.427 19.004 60.247 18.98C60.079 18.956 59.857 18.944 59.581 18.944C59.221 18.944 58.873 19.034 58.537 19.214C58.201 19.382 57.925 19.646 57.709 20.006C57.493 20.354 57.385 20.798 57.385 21.338V26H54.919ZM67.6808 29.78V17H69.8948L70.0568 19.862L69.7508 19.538C69.8588 19.01 70.0568 18.542 70.3448 18.134C70.6448 17.726 71.0228 17.408 71.4788 17.18C71.9348 16.94 72.4448 16.82 73.0088 16.82C73.7408 16.82 74.3948 17.006 74.9708 17.378C75.5468 17.75 75.9968 18.284 76.3208 18.98C76.6568 19.664 76.8248 20.498 76.8248 21.482C76.8248 22.466 76.6568 23.312 76.3208 24.02C75.9848 24.716 75.5228 25.25 74.9348 25.622C74.3588 25.994 73.6988 26.18 72.9548 26.18C72.1628 26.18 71.5028 25.958 70.9748 25.514C70.4588 25.07 70.1048 24.512 69.9128 23.84L70.1468 23.462V29.78H67.6808ZM72.2348 24.29C72.8948 24.29 73.4108 24.056 73.7828 23.588C74.1668 23.108 74.3588 22.412 74.3588 21.5C74.3588 20.588 74.1728 19.898 73.8008 19.43C73.4408 18.95 72.9308 18.71 72.2708 18.71C71.8508 18.71 71.4788 18.824 71.1548 19.052C70.8428 19.268 70.5968 19.586 70.4168 20.006C70.2368 20.414 70.1468 20.912 70.1468 21.5C70.1468 22.076 70.2308 22.574 70.3988 22.994C70.5668 23.414 70.8068 23.738 71.1188 23.966C71.4428 24.182 71.8148 24.29 72.2348 24.29ZM84.0432 20.258C84.0432 19.742 83.8932 19.34 83.5932 19.052C83.3052 18.764 82.9212 18.62 82.4412 18.62C81.9972 18.62 81.6072 18.734 81.2712 18.962C80.9352 19.19 80.6892 19.568 80.5332 20.096L78.4272 19.448C78.6312 18.656 79.0752 18.02 79.7592 17.54C80.4552 17.06 81.3852 16.82 82.5492 16.82C83.3412 16.82 84.0312 16.946 84.6192 17.198C85.2072 17.438 85.6632 17.804 85.9872 18.296C86.3232 18.788 86.4912 19.406 86.4912 20.15V23.804C86.4912 24.26 86.7072 24.488 87.1392 24.488C87.3432 24.488 87.5352 24.458 87.7152 24.398L87.5712 25.928C87.2592 26.084 86.8692 26.162 86.4012 26.162C85.9812 26.162 85.6032 26.09 85.2672 25.946C84.9312 25.802 84.6672 25.586 84.4752 25.298C84.2832 24.998 84.1872 24.626 84.1872 24.182V24.11L84.6192 24.038C84.5472 24.494 84.3492 24.884 84.0252 25.208C83.7012 25.52 83.3052 25.76 82.8372 25.928C82.3812 26.096 81.9072 26.18 81.4152 26.18C80.8032 26.18 80.2752 26.09 79.8312 25.91C79.3872 25.718 79.0452 25.442 78.8052 25.082C78.5652 24.722 78.4452 24.278 78.4452 23.75C78.4452 23.078 78.6612 22.532 79.0932 22.112C79.5252 21.68 80.1432 21.386 80.9472 21.23L84.3312 20.546L84.3132 22.076L82.1532 22.508C81.7452 22.592 81.4332 22.706 81.2172 22.85C81.0132 22.982 80.9112 23.204 80.9112 23.516C80.9112 23.816 81.0192 24.044 81.2352 24.2C81.4632 24.356 81.7332 24.434 82.0452 24.434C82.2972 24.434 82.5432 24.404 82.7832 24.344C83.0232 24.284 83.2392 24.188 83.4312 24.056C83.6232 23.924 83.7732 23.744 83.8812 23.516C83.9892 23.288 84.0432 23.012 84.0432 22.688V20.258ZM97.1466 17L93.5106 26.558C93.2226 27.374 92.8986 28.022 92.5386 28.502C92.1906 28.982 91.7826 29.33 91.3146 29.546C90.8586 29.762 90.3126 29.87 89.6766 29.87C89.2086 29.87 88.7766 29.81 88.3806 29.69C87.9966 29.582 87.6606 29.438 87.3726 29.258L87.8946 27.476C88.1226 27.656 88.3626 27.782 88.6146 27.854C88.8666 27.938 89.1546 27.98 89.4786 27.98C89.8146 27.98 90.1026 27.908 90.3426 27.764C90.5946 27.62 90.8046 27.332 90.9726 26.9L91.2786 26.126L90.2886 23.786L87.5346 17H90.2706L91.9806 22.4L92.4486 24.2L93.0066 22.292L94.6446 17H97.1466ZM98.5128 26V17H100.727L100.817 18.62C101.117 18.02 101.525 17.57 102.041 17.27C102.569 16.97 103.151 16.82 103.787 16.82C104.435 16.82 105.017 16.97 105.533 17.27C106.061 17.57 106.457 18.014 106.721 18.602C106.913 18.206 107.171 17.876 107.495 17.612C107.819 17.348 108.179 17.15 108.575 17.018C108.971 16.886 109.373 16.82 109.781 16.82C110.369 16.82 110.903 16.94 111.383 17.18C111.875 17.42 112.265 17.78 112.553 18.26C112.841 18.74 112.985 19.352 112.985 20.096V26H110.519V20.582C110.519 19.922 110.375 19.454 110.087 19.178C109.799 18.902 109.427 18.764 108.971 18.764C108.611 18.764 108.275 18.854 107.963 19.034C107.663 19.214 107.423 19.484 107.243 19.844C107.075 20.192 106.991 20.63 106.991 21.158V26H104.525V20.582C104.525 19.922 104.375 19.454 104.075 19.178C103.787 18.902 103.415 18.764 102.959 18.764C102.647 18.764 102.335 18.848 102.023 19.016C101.723 19.184 101.471 19.448 101.267 19.808C101.075 20.168 100.979 20.642 100.979 21.23V26H98.5128ZM119.704 26.18C118.756 26.18 117.928 25.994 117.22 25.622C116.524 25.25 115.984 24.716 115.6 24.02C115.216 23.324 115.024 22.484 115.024 21.5C115.024 20.516 115.216 19.676 115.6 18.98C115.984 18.284 116.518 17.75 117.202 17.378C117.898 17.006 118.69 16.82 119.578 16.82C120.49 16.82 121.264 17.006 121.9 17.378C122.536 17.738 123.022 18.236 123.358 18.872C123.694 19.496 123.862 20.21 123.862 21.014C123.862 21.254 123.856 21.482 123.844 21.698C123.832 21.914 123.814 22.106 123.79 22.274H116.608V20.564H122.71L121.522 20.996C121.522 20.24 121.348 19.658 121 19.25C120.664 18.842 120.184 18.638 119.56 18.638C119.104 18.638 118.708 18.746 118.372 18.962C118.048 19.178 117.802 19.502 117.634 19.934C117.466 20.354 117.382 20.888 117.382 21.536C117.382 22.172 117.472 22.7 117.652 23.12C117.844 23.528 118.108 23.834 118.444 24.038C118.792 24.242 119.206 24.344 119.686 24.344C120.214 24.344 120.64 24.242 120.964 24.038C121.288 23.834 121.54 23.552 121.72 23.192L123.682 23.948C123.49 24.416 123.196 24.818 122.8 25.154C122.416 25.49 121.954 25.748 121.414 25.928C120.886 26.096 120.316 26.18 119.704 26.18ZM125.952 26V17H128.166L128.31 19.7L128.004 19.412C128.148 18.824 128.376 18.338 128.688 17.954C129 17.57 129.378 17.288 129.822 17.108C130.278 16.916 130.776 16.82 131.316 16.82C131.94 16.82 132.492 16.94 132.972 17.18C133.464 17.42 133.848 17.786 134.124 18.278C134.412 18.758 134.556 19.364 134.556 20.096V26H132.09V20.798C132.09 20.03 131.94 19.502 131.64 19.214C131.34 18.914 130.95 18.764 130.47 18.764C130.134 18.764 129.804 18.848 129.48 19.016C129.168 19.172 128.91 19.43 128.706 19.79C128.514 20.15 128.418 20.63 128.418 21.23V26H125.952ZM140.212 14.246V23.066C140.212 23.498 140.32 23.816 140.536 24.02C140.764 24.212 141.07 24.308 141.454 24.308C141.754 24.308 142.018 24.266 142.246 24.182C142.474 24.086 142.678 23.96 142.858 23.804L143.254 25.442C142.966 25.67 142.606 25.85 142.174 25.982C141.742 26.114 141.286 26.18 140.806 26.18C140.206 26.18 139.672 26.09 139.204 25.91C138.748 25.73 138.388 25.442 138.124 25.046C137.872 24.65 137.746 24.122 137.746 23.462V14.93L140.212 14.246ZM143.092 17V18.836H136.09V17H143.092Z" fill="black" fill-opacity="0.8"/>
<path d="M20.204 57V47.76H27.134V49.314H22.136V51.61H26.07V53.094H22.136V55.446H27.33V57H20.204ZM28.8674 57V50H30.5894L30.7014 52.1L30.4634 51.876C30.5754 51.4187 30.7527 51.0407 30.9954 50.742C31.238 50.4433 31.532 50.224 31.8774 50.084C32.232 49.9347 32.6194 49.86 33.0394 49.86C33.5247 49.86 33.954 49.9533 34.3274 50.14C34.71 50.3267 35.0087 50.6113 35.2234 50.994C35.4474 51.3673 35.5594 51.8387 35.5594 52.408V57H33.6414V52.954C33.6414 52.3567 33.5247 51.946 33.2914 51.722C33.058 51.4887 32.7547 51.372 32.3814 51.372C32.12 51.372 31.8634 51.4373 31.6114 51.568C31.3687 51.6893 31.168 51.89 31.0094 52.17C30.86 52.45 30.7854 52.8233 30.7854 53.29V57H28.8674ZM39.9587 47.858V54.718C39.9587 55.054 40.0427 55.3013 40.2107 55.46C40.388 55.6093 40.626 55.684 40.9247 55.684C41.158 55.684 41.3633 55.6513 41.5407 55.586C41.718 55.5113 41.8767 55.4133 42.0167 55.292L42.3247 56.566C42.1007 56.7433 41.8207 56.8833 41.4847 56.986C41.1487 57.0887 40.794 57.14 40.4207 57.14C39.954 57.14 39.5387 57.07 39.1747 56.93C38.82 56.79 38.54 56.566 38.3347 56.258C38.1387 55.95 38.0407 55.5393 38.0407 55.026V48.39L39.9587 47.858ZM42.1987 50V51.428H36.7527V50H42.1987ZM46.7443 57.14C46.0069 57.14 45.3629 56.9953 44.8123 56.706C44.2709 56.4167 43.8509 56.0013 43.5523 55.46C43.2536 54.9187 43.1043 54.2653 43.1043 53.5C43.1043 52.7347 43.2536 52.0813 43.5523 51.54C43.8509 50.9987 44.2663 50.5833 44.7983 50.294C45.3396 50.0047 45.9556 49.86 46.6463 49.86C47.3556 49.86 47.9576 50.0047 48.4523 50.294C48.9469 50.574 49.3249 50.9613 49.5863 51.456C49.8476 51.9413 49.9783 52.4967 49.9783 53.122C49.9783 53.3087 49.9736 53.486 49.9643 53.654C49.9549 53.822 49.9409 53.9713 49.9223 54.102H44.3363V52.772H49.0823L48.1583 53.108C48.1583 52.52 48.0229 52.0673 47.7523 51.75C47.4909 51.4327 47.1176 51.274 46.6323 51.274C46.2776 51.274 45.9696 51.358 45.7083 51.526C45.4563 51.694 45.2649 51.946 45.1343 52.282C45.0036 52.6087 44.9383 53.024 44.9383 53.528C44.9383 54.0227 45.0083 54.4333 45.1483 54.76C45.2976 55.0773 45.5029 55.3153 45.7643 55.474C46.0349 55.6327 46.3569 55.712 46.7303 55.712C47.1409 55.712 47.4723 55.6327 47.7243 55.474C47.9763 55.3153 48.1723 55.096 48.3123 54.816L49.8383 55.404C49.6889 55.768 49.4603 56.0807 49.1523 56.342C48.8536 56.6033 48.4943 56.804 48.0743 56.944C47.6636 57.0747 47.2203 57.14 46.7443 57.14ZM51.6037 57V50H53.2697L53.3957 51.372C53.5824 50.8867 53.853 50.5133 54.2077 50.252C54.5717 49.9907 55.0244 49.86 55.5657 49.86C55.7244 49.86 55.869 49.874 55.9997 49.902C56.1304 49.93 56.2377 49.9673 56.3217 50.014L56.0977 51.624C56.0044 51.5867 55.8877 51.5587 55.7477 51.54C55.617 51.5213 55.4444 51.512 55.2297 51.512C54.9497 51.512 54.679 51.582 54.4177 51.722C54.1564 51.8527 53.9417 52.058 53.7737 52.338C53.6057 52.6087 53.5217 52.954 53.5217 53.374V57H51.6037ZM61.5295 59.94V50H63.2515L63.3775 52.226L63.1395 51.974C63.2235 51.5633 63.3775 51.1993 63.6015 50.882C63.8348 50.5647 64.1288 50.3173 64.4835 50.14C64.8382 49.9533 65.2348 49.86 65.6735 49.86C66.2428 49.86 66.7515 50.0047 67.1995 50.294C67.6475 50.5833 67.9975 50.9987 68.2495 51.54C68.5108 52.072 68.6415 52.7207 68.6415 53.486C68.6415 54.2513 68.5108 54.9093 68.2495 55.46C67.9882 56.0013 67.6288 56.4167 67.1715 56.706C66.7235 56.9953 66.2102 57.14 65.6315 57.14C65.0155 57.14 64.5022 56.9673 64.0915 56.622C63.6902 56.2767 63.4148 55.8427 63.2655 55.32L63.4475 55.026V59.94H61.5295ZM65.0715 55.67C65.5848 55.67 65.9862 55.488 66.2755 55.124C66.5742 54.7507 66.7235 54.2093 66.7235 53.5C66.7235 52.7907 66.5788 52.254 66.2895 51.89C66.0095 51.5167 65.6128 51.33 65.0995 51.33C64.7728 51.33 64.4835 51.4187 64.2315 51.596C63.9888 51.764 63.7975 52.0113 63.6575 52.338C63.5175 52.6553 63.4475 53.0427 63.4475 53.5C63.4475 53.948 63.5128 54.3353 63.6435 54.662C63.7742 54.9887 63.9608 55.2407 64.2035 55.418C64.4555 55.586 64.7448 55.67 65.0715 55.67ZM71.2728 48.992C70.8715 48.992 70.5728 48.908 70.3768 48.74C70.1808 48.5627 70.0828 48.306 70.0828 47.97C70.0828 47.6247 70.1808 47.368 70.3768 47.2C70.5728 47.0227 70.8715 46.934 71.2728 46.934C71.6742 46.934 71.9728 47.0227 72.1688 47.2C72.3648 47.368 72.4628 47.6247 72.4628 47.97C72.4628 48.306 72.3648 48.5627 72.1688 48.74C71.9728 48.908 71.6742 48.992 71.2728 48.992ZM72.2248 50V57H70.3068V50H72.2248ZM74.258 57V50H75.98L76.092 52.1L75.854 51.876C75.966 51.4187 76.1433 51.0407 76.386 50.742C76.6287 50.4433 76.9227 50.224 77.268 50.084C77.6227 49.9347 78.01 49.86 78.43 49.86C78.9153 49.86 79.3447 49.9533 79.718 50.14C80.1007 50.3267 80.3993 50.6113 80.614 50.994C80.838 51.3673 80.95 51.8387 80.95 52.408V57H79.032V52.954C79.032 52.3567 78.9153 51.946 78.682 51.722C78.4487 51.4887 78.1453 51.372 77.772 51.372C77.5107 51.372 77.254 51.4373 77.002 51.568C76.7593 51.6893 76.5587 51.89 76.4 52.17C76.2507 52.45 76.176 52.8233 76.176 53.29V57H74.258ZM91.1953 52.534C91.1953 52.1327 91.0786 51.82 90.8453 51.596C90.6213 51.372 90.3226 51.26 89.9493 51.26C89.6039 51.26 89.3006 51.3487 89.0393 51.526C88.7779 51.7033 88.5866 51.9973 88.4653 52.408L86.8273 51.904C86.9859 51.288 87.3313 50.7933 87.8633 50.42C88.4046 50.0467 89.1279 49.86 90.0333 49.86C90.6493 49.86 91.1859 49.958 91.6433 50.154C92.1006 50.3407 92.4553 50.6253 92.7073 51.008C92.9686 51.3907 93.0993 51.8713 93.0993 52.45V55.292C93.0993 55.6467 93.2673 55.824 93.6033 55.824C93.7619 55.824 93.9113 55.8007 94.0513 55.754L93.9393 56.944C93.6966 57.0653 93.3933 57.126 93.0293 57.126C92.7026 57.126 92.4086 57.07 92.1473 56.958C91.8859 56.846 91.6806 56.678 91.5313 56.454C91.3819 56.2207 91.3073 55.9313 91.3073 55.586V55.53L91.6433 55.474C91.5873 55.8287 91.4333 56.132 91.1813 56.384C90.9293 56.6267 90.6213 56.8133 90.2573 56.944C89.9026 57.0747 89.5339 57.14 89.1513 57.14C88.6753 57.14 88.2646 57.07 87.9193 56.93C87.5739 56.7807 87.3079 56.566 87.1213 56.286C86.9346 56.006 86.8413 55.6607 86.8413 55.25C86.8413 54.7273 87.0093 54.3027 87.3453 53.976C87.6813 53.64 88.1619 53.4113 88.7873 53.29L91.4193 52.758L91.4053 53.948L89.7253 54.284C89.4079 54.3493 89.1653 54.438 88.9973 54.55C88.8386 54.6527 88.7593 54.8253 88.7593 55.068C88.7593 55.3013 88.8433 55.4787 89.0113 55.6C89.1886 55.7213 89.3986 55.782 89.6413 55.782C89.8373 55.782 90.0286 55.7587 90.2153 55.712C90.4019 55.6653 90.5699 55.5907 90.7193 55.488C90.8686 55.3853 90.9853 55.2453 91.0693 55.068C91.1533 54.8907 91.1953 54.676 91.1953 54.424V52.534ZM95.2443 57V50H96.9663L97.0363 51.26C97.2697 50.7933 97.587 50.4433 97.9883 50.21C98.399 49.9767 98.8517 49.86 99.3463 49.86C99.8503 49.86 100.303 49.9767 100.704 50.21C101.115 50.4433 101.423 50.7887 101.628 51.246C101.778 50.938 101.978 50.6813 102.23 50.476C102.482 50.2707 102.762 50.1167 103.07 50.014C103.378 49.9113 103.691 49.86 104.008 49.86C104.466 49.86 104.881 49.9533 105.254 50.14C105.637 50.3267 105.94 50.6067 106.164 50.98C106.388 51.3533 106.5 51.8293 106.5 52.408V57H104.582V52.786C104.582 52.2727 104.47 51.9087 104.246 51.694C104.022 51.4793 103.733 51.372 103.378 51.372C103.098 51.372 102.837 51.442 102.594 51.582C102.361 51.722 102.174 51.932 102.034 52.212C101.904 52.4827 101.838 52.8233 101.838 53.234V57H99.9203V52.786C99.9203 52.2727 99.8037 51.9087 99.5703 51.694C99.3463 51.4793 99.057 51.372 98.7023 51.372C98.4597 51.372 98.217 51.4373 97.9743 51.568C97.741 51.6987 97.545 51.904 97.3863 52.184C97.237 52.464 97.1623 52.8327 97.1623 53.29V57H95.2443ZM111.671 49.86C112.38 49.86 113.001 50.0047 113.533 50.294C114.074 50.5833 114.494 50.9987 114.793 51.54C115.101 52.0813 115.255 52.7347 115.255 53.5C115.255 54.256 115.101 54.9093 114.793 55.46C114.494 56.0013 114.074 56.4167 113.533 56.706C113.001 56.9953 112.38 57.14 111.671 57.14C110.971 57.14 110.35 56.9953 109.809 56.706C109.267 56.4167 108.843 56.0013 108.535 55.46C108.236 54.9093 108.087 54.256 108.087 53.5C108.087 52.7347 108.236 52.0813 108.535 51.54C108.843 50.9987 109.267 50.5833 109.809 50.294C110.35 50.0047 110.971 49.86 111.671 49.86ZM111.671 51.288C111.316 51.288 111.013 51.372 110.761 51.54C110.518 51.6987 110.331 51.9413 110.201 52.268C110.07 52.5947 110.005 53.0053 110.005 53.5C110.005 53.9947 110.07 54.4053 110.201 54.732C110.331 55.0587 110.518 55.306 110.761 55.474C111.013 55.6327 111.316 55.712 111.671 55.712C112.016 55.712 112.31 55.6327 112.553 55.474C112.805 55.306 112.996 55.0587 113.127 54.732C113.257 54.4053 113.323 53.9947 113.323 53.5C113.323 53.0053 113.257 52.5947 113.127 52.268C112.996 51.9413 112.805 51.6987 112.553 51.54C112.31 51.372 112.016 51.288 111.671 51.288ZM119.296 57.14C118.829 57.14 118.409 57.056 118.036 56.888C117.662 56.72 117.364 56.454 117.14 56.09C116.925 55.7167 116.818 55.236 116.818 54.648V50H118.736V54.186C118.736 54.7273 118.848 55.1053 119.072 55.32C119.296 55.5253 119.618 55.628 120.038 55.628C120.234 55.628 120.425 55.5953 120.612 55.53C120.798 55.4553 120.962 55.3433 121.102 55.194C121.251 55.0447 121.368 54.8533 121.452 54.62C121.536 54.3773 121.578 54.0927 121.578 53.766V50H123.496V57H121.788L121.718 55.782C121.484 56.2487 121.162 56.594 120.752 56.818C120.35 57.0327 119.865 57.14 119.296 57.14ZM125.514 57V50H127.236L127.348 52.1L127.11 51.876C127.222 51.4187 127.399 51.0407 127.642 50.742C127.885 50.4433 128.179 50.224 128.524 50.084C128.879 49.9347 129.266 49.86 129.686 49.86C130.171 49.86 130.601 49.9533 130.974 50.14C131.357 50.3267 131.655 50.6113 131.87 50.994C132.094 51.3673 132.206 51.8387 132.206 52.408V57H130.288V52.954C130.288 52.3567 130.171 51.946 129.938 51.722C129.705 51.4887 129.401 51.372 129.028 51.372C128.767 51.372 128.51 51.4373 128.258 51.568C128.015 51.6893 127.815 51.89 127.656 52.17C127.507 52.45 127.432 52.8233 127.432 53.29V57H125.514ZM136.605 47.858V54.718C136.605 55.054 136.689 55.3013 136.857 55.46C137.034 55.6093 137.272 55.684 137.571 55.684C137.804 55.684 138.01 55.6513 138.187 55.586C138.364 55.5113 138.523 55.4133 138.663 55.292L138.971 56.566C138.747 56.7433 138.467 56.8833 138.131 56.986C137.795 57.0887 137.44 57.14 137.067 57.14C136.6 57.14 136.185 57.07 135.821 56.93C135.466 56.79 135.186 56.566 134.981 56.258C134.785 55.95 134.687 55.5393 134.687 55.026V48.39L136.605 47.858ZM138.845 50V51.428H133.399V50H138.845ZM141.235 49.86C141.608 49.86 141.902 49.9627 142.117 50.168C142.341 50.3733 142.453 50.6487 142.453 50.994C142.453 51.3487 142.341 51.6287 142.117 51.834C141.902 52.03 141.608 52.128 141.235 52.128C140.861 52.128 140.563 52.03 140.339 51.834C140.124 51.6287 140.017 51.3487 140.017 50.994C140.017 50.6487 140.124 50.3733 140.339 50.168C140.563 49.9627 140.861 49.86 141.235 49.86ZM141.235 54.858C141.608 54.858 141.902 54.9607 142.117 55.166C142.341 55.3713 142.453 55.6467 142.453 55.992C142.453 56.3467 142.341 56.6267 142.117 56.832C141.902 57.028 141.608 57.126 141.235 57.126C140.861 57.126 140.563 57.028 140.339 56.832C140.124 56.6267 140.017 56.3467 140.017 55.992C140.017 55.6467 140.124 55.3713 140.339 55.166C140.563 54.9607 140.861 54.858 141.235 54.858Z" fill="black" fill-opacity="0.6"/>
<path d="M27.512 112.76V114.314H24.418V122H22.486V114.314H19.378V112.76H27.512ZM27.9787 122V115H29.6447L29.7707 116.372C29.9574 115.887 30.228 115.513 30.5827 115.252C30.9467 114.991 31.3994 114.86 31.9407 114.86C32.0994 114.86 32.244 114.874 32.3747 114.902C32.5054 114.93 32.6127 114.967 32.6967 115.014L32.4727 116.624C32.3794 116.587 32.2627 116.559 32.1227 116.54C31.992 116.521 31.8194 116.512 31.6047 116.512C31.3247 116.512 31.054 116.582 30.7927 116.722C30.5314 116.853 30.3167 117.058 30.1487 117.338C29.9807 117.609 29.8967 117.954 29.8967 118.374V122H27.9787ZM37.7519 117.534C37.7519 117.133 37.6352 116.82 37.4019 116.596C37.1779 116.372 36.8792 116.26 36.5059 116.26C36.1606 116.26 35.8572 116.349 35.5959 116.526C35.3346 116.703 35.1432 116.997 35.0219 117.408L33.3839 116.904C33.5426 116.288 33.8879 115.793 34.4199 115.42C34.9612 115.047 35.6846 114.86 36.5899 114.86C37.2059 114.86 37.7426 114.958 38.1999 115.154C38.6572 115.341 39.0119 115.625 39.2639 116.008C39.5252 116.391 39.6559 116.871 39.6559 117.45V120.292C39.6559 120.647 39.8239 120.824 40.1599 120.824C40.3186 120.824 40.4679 120.801 40.6079 120.754L40.4959 121.944C40.2532 122.065 39.9499 122.126 39.5859 122.126C39.2592 122.126 38.9652 122.07 38.7039 121.958C38.4426 121.846 38.2372 121.678 38.0879 121.454C37.9386 121.221 37.8639 120.931 37.8639 120.586V120.53L38.1999 120.474C38.1439 120.829 37.9899 121.132 37.7379 121.384C37.4859 121.627 37.1779 121.813 36.8139 121.944C36.4592 122.075 36.0906 122.14 35.7079 122.14C35.2319 122.14 34.8212 122.07 34.4759 121.93C34.1306 121.781 33.8646 121.566 33.6779 121.286C33.4912 121.006 33.3979 120.661 33.3979 120.25C33.3979 119.727 33.5659 119.303 33.9019 118.976C34.2379 118.64 34.7186 118.411 35.3439 118.29L37.9759 117.758L37.9619 118.948L36.2819 119.284C35.9646 119.349 35.7219 119.438 35.5539 119.55C35.3952 119.653 35.3159 119.825 35.3159 120.068C35.3159 120.301 35.3999 120.479 35.5679 120.6C35.7452 120.721 35.9552 120.782 36.1979 120.782C36.3939 120.782 36.5852 120.759 36.7719 120.712C36.9586 120.665 37.1266 120.591 37.2759 120.488C37.4252 120.385 37.5419 120.245 37.6259 120.068C37.7099 119.891 37.7519 119.676 37.7519 119.424V117.534ZM41.801 122V115H43.523L43.635 117.1L43.397 116.876C43.509 116.419 43.6863 116.041 43.929 115.742C44.1716 115.443 44.4656 115.224 44.811 115.084C45.1656 114.935 45.553 114.86 45.973 114.86C46.4583 114.86 46.8876 114.953 47.261 115.14C47.6436 115.327 47.9423 115.611 48.157 115.994C48.381 116.367 48.493 116.839 48.493 117.408V122H46.575V117.954C46.575 117.357 46.4583 116.946 46.225 116.722C45.9916 116.489 45.6883 116.372 45.315 116.372C45.0536 116.372 44.797 116.437 44.545 116.568C44.3023 116.689 44.1016 116.89 43.943 117.17C43.7936 117.45 43.719 117.823 43.719 118.29V122H41.801ZM53.2689 122.14C52.5596 122.14 51.9109 122.014 51.3229 121.762C50.7443 121.51 50.2729 121.155 49.9089 120.698L51.0149 119.578C51.2389 119.914 51.5376 120.189 51.9109 120.404C52.2843 120.619 52.7276 120.726 53.2409 120.726C53.6049 120.726 53.8943 120.675 54.1089 120.572C54.3329 120.46 54.4449 120.287 54.4449 120.054C54.4449 119.905 54.3936 119.779 54.2909 119.676C54.1883 119.564 53.9829 119.475 53.6749 119.41L52.4429 119.158C51.6309 118.99 51.0523 118.738 50.7069 118.402C50.3709 118.057 50.2029 117.613 50.2029 117.072C50.2029 116.689 50.3149 116.33 50.5389 115.994C50.7723 115.658 51.1176 115.387 51.5749 115.182C52.0323 114.967 52.6016 114.86 53.2829 114.86C53.9829 114.86 54.5896 114.972 55.1029 115.196C55.6256 115.411 56.0363 115.733 56.3349 116.162L55.1869 117.282C54.9816 116.955 54.7109 116.708 54.3749 116.54C54.0483 116.363 53.7029 116.274 53.3389 116.274C53.0776 116.274 52.8536 116.302 52.6669 116.358C52.4803 116.414 52.3403 116.493 52.2469 116.596C52.1536 116.689 52.1069 116.811 52.1069 116.96C52.1069 117.109 52.1723 117.24 52.3029 117.352C52.4336 117.455 52.6716 117.543 53.0169 117.618L54.4449 117.912C55.1356 118.052 55.6303 118.29 55.9289 118.626C56.2276 118.953 56.3769 119.349 56.3769 119.816C56.3769 120.264 56.2556 120.665 56.0129 121.02C55.7796 121.365 55.4296 121.641 54.9629 121.846C54.5056 122.042 53.9409 122.14 53.2689 122.14ZM61.8964 117.534C61.8964 117.133 61.7798 116.82 61.5464 116.596C61.3224 116.372 61.0238 116.26 60.6504 116.26C60.3051 116.26 60.0018 116.349 59.7404 116.526C59.4791 116.703 59.2878 116.997 59.1664 117.408L57.5284 116.904C57.6871 116.288 58.0324 115.793 58.5644 115.42C59.1058 115.047 59.8291 114.86 60.7344 114.86C61.3504 114.86 61.8871 114.958 62.3444 115.154C62.8018 115.341 63.1564 115.625 63.4084 116.008C63.6698 116.391 63.8004 116.871 63.8004 117.45V120.292C63.8004 120.647 63.9684 120.824 64.3044 120.824C64.4631 120.824 64.6124 120.801 64.7524 120.754L64.6404 121.944C64.3978 122.065 64.0944 122.126 63.7304 122.126C63.4038 122.126 63.1098 122.07 62.8484 121.958C62.5871 121.846 62.3818 121.678 62.2324 121.454C62.0831 121.221 62.0084 120.931 62.0084 120.586V120.53L62.3444 120.474C62.2884 120.829 62.1344 121.132 61.8824 121.384C61.6304 121.627 61.3224 121.813 60.9584 121.944C60.6038 122.075 60.2351 122.14 59.8524 122.14C59.3764 122.14 58.9658 122.07 58.6204 121.93C58.2751 121.781 58.0091 121.566 57.8224 121.286C57.6358 121.006 57.5424 120.661 57.5424 120.25C57.5424 119.727 57.7104 119.303 58.0464 118.976C58.3824 118.64 58.8631 118.411 59.4884 118.29L62.1204 117.758L62.1064 118.948L60.4264 119.284C60.1091 119.349 59.8664 119.438 59.6984 119.55C59.5398 119.653 59.4604 119.825 59.4604 120.068C59.4604 120.301 59.5444 120.479 59.7124 120.6C59.8898 120.721 60.0998 120.782 60.3424 120.782C60.5384 120.782 60.7298 120.759 60.9164 120.712C61.1031 120.665 61.2711 120.591 61.4204 120.488C61.5698 120.385 61.6864 120.245 61.7704 120.068C61.8544 119.891 61.8964 119.676 61.8964 119.424V117.534ZM69.0962 114.86C69.7215 114.86 70.2488 114.953 70.6782 115.14C71.1168 115.317 71.4668 115.565 71.7282 115.882C71.9988 116.19 72.1902 116.535 72.3022 116.918L70.5102 117.562C70.4168 117.142 70.2582 116.825 70.0342 116.61C69.8102 116.395 69.5068 116.288 69.1242 116.288C68.7695 116.288 68.4662 116.372 68.2142 116.54C67.9622 116.699 67.7708 116.946 67.6402 117.282C67.5095 117.609 67.4442 118.019 67.4442 118.514C67.4442 119.009 67.5095 119.419 67.6402 119.746C67.7802 120.073 67.9762 120.315 68.2282 120.474C68.4895 120.633 68.7928 120.712 69.1382 120.712C69.4182 120.712 69.6562 120.665 69.8522 120.572C70.0482 120.469 70.2068 120.325 70.3282 120.138C70.4588 119.951 70.5475 119.727 70.5942 119.466L72.3302 120.026C72.2275 120.446 72.0362 120.815 71.7562 121.132C71.4762 121.449 71.1168 121.697 70.6782 121.874C70.2395 122.051 69.7308 122.14 69.1522 122.14C68.4335 122.14 67.7988 121.995 67.2482 121.706C66.6975 121.417 66.2728 121.001 65.9742 120.46C65.6755 119.919 65.5262 119.265 65.5262 118.5C65.5262 117.735 65.6755 117.081 65.9742 116.54C66.2728 115.999 66.6928 115.583 67.2342 115.294C67.7755 115.005 68.3962 114.86 69.0962 114.86ZM76.2985 112.858V119.718C76.2985 120.054 76.3825 120.301 76.5505 120.46C76.7278 120.609 76.9658 120.684 77.2645 120.684C77.4978 120.684 77.7032 120.651 77.8805 120.586C78.0578 120.511 78.2165 120.413 78.3565 120.292L78.6645 121.566C78.4405 121.743 78.1605 121.883 77.8245 121.986C77.4885 122.089 77.1338 122.14 76.7605 122.14C76.2938 122.14 75.8785 122.07 75.5145 121.93C75.1598 121.79 74.8798 121.566 74.6745 121.258C74.4785 120.95 74.3805 120.539 74.3805 120.026V113.39L76.2985 112.858ZM78.5385 115V116.428H73.0925V115H78.5385ZM80.8021 113.992C80.4008 113.992 80.1021 113.908 79.9061 113.74C79.7101 113.563 79.6121 113.306 79.6121 112.97C79.6121 112.625 79.7101 112.368 79.9061 112.2C80.1021 112.023 80.4008 111.934 80.8021 111.934C81.2035 111.934 81.5021 112.023 81.6981 112.2C81.8941 112.368 81.9921 112.625 81.9921 112.97C81.9921 113.306 81.8941 113.563 81.6981 113.74C81.5021 113.908 81.2035 113.992 80.8021 113.992ZM81.7541 115V122H79.8361V115H81.7541ZM86.9793 114.86C87.6886 114.86 88.3093 115.005 88.8413 115.294C89.3826 115.583 89.8026 115.999 90.1013 116.54C90.4093 117.081 90.5633 117.735 90.5633 118.5C90.5633 119.256 90.4093 119.909 90.1013 120.46C89.8026 121.001 89.3826 121.417 88.8413 121.706C88.3093 121.995 87.6886 122.14 86.9793 122.14C86.2793 122.14 85.6586 121.995 85.1173 121.706C84.576 121.417 84.1513 121.001 83.8433 120.46C83.5446 119.909 83.3953 119.256 83.3953 118.5C83.3953 117.735 83.5446 117.081 83.8433 116.54C84.1513 115.999 84.576 115.583 85.1173 115.294C85.6586 115.005 86.2793 114.86 86.9793 114.86ZM86.9793 116.288C86.6246 116.288 86.3213 116.372 86.0693 116.54C85.8266 116.699 85.64 116.941 85.5093 117.268C85.3786 117.595 85.3133 118.005 85.3133 118.5C85.3133 118.995 85.3786 119.405 85.5093 119.732C85.64 120.059 85.8266 120.306 86.0693 120.474C86.3213 120.633 86.6246 120.712 86.9793 120.712C87.3246 120.712 87.6186 120.633 87.8613 120.474C88.1133 120.306 88.3046 120.059 88.4353 119.732C88.566 119.405 88.6313 118.995 88.6313 118.5C88.6313 118.005 88.566 117.595 88.4353 117.268C88.3046 116.941 88.1133 116.699 87.8613 116.54C87.6186 116.372 87.3246 116.288 86.9793 116.288ZM92.1682 122V115H93.8902L94.0022 117.1L93.7642 116.876C93.8762 116.419 94.0535 116.041 94.2962 115.742C94.5388 115.443 94.8328 115.224 95.1782 115.084C95.5328 114.935 95.9202 114.86 96.3402 114.86C96.8255 114.86 97.2548 114.953 97.6282 115.14C98.0108 115.327 98.3095 115.611 98.5242 115.994C98.7482 116.367 98.8602 116.839 98.8602 117.408V122H96.9422V117.954C96.9422 117.357 96.8255 116.946 96.5922 116.722C96.3588 116.489 96.0555 116.372 95.6822 116.372C95.4208 116.372 95.1642 116.437 94.9122 116.568C94.6695 116.689 94.4688 116.89 94.3102 117.17C94.1608 117.45 94.0862 117.823 94.0862 118.29V122H92.1682ZM108.293 114.86C108.919 114.86 109.446 114.953 109.875 115.14C110.314 115.317 110.664 115.565 110.925 115.882C111.196 116.19 111.387 116.535 111.499 116.918L109.707 117.562C109.614 117.142 109.455 116.825 109.231 116.61C109.007 116.395 108.704 116.288 108.321 116.288C107.967 116.288 107.663 116.372 107.411 116.54C107.159 116.699 106.968 116.946 106.837 117.282C106.707 117.609 106.641 118.019 106.641 118.514C106.641 119.009 106.707 119.419 106.837 119.746C106.977 120.073 107.173 120.315 107.425 120.474C107.687 120.633 107.99 120.712 108.335 120.712C108.615 120.712 108.853 120.665 109.049 120.572C109.245 120.469 109.404 120.325 109.525 120.138C109.656 119.951 109.745 119.727 109.791 119.466L111.527 120.026C111.425 120.446 111.233 120.815 110.953 121.132C110.673 121.449 110.314 121.697 109.875 121.874C109.437 122.051 108.928 122.14 108.349 122.14C107.631 122.14 106.996 121.995 106.445 121.706C105.895 121.417 105.47 121.001 105.171 120.46C104.873 119.919 104.723 119.265 104.723 118.5C104.723 117.735 104.873 117.081 105.171 116.54C105.47 115.999 105.89 115.583 106.431 115.294C106.973 115.005 107.593 114.86 108.293 114.86ZM113.018 122V111.934H114.936V116.19C115.16 115.742 115.468 115.411 115.86 115.196C116.252 114.972 116.695 114.86 117.19 114.86C117.675 114.86 118.104 114.953 118.478 115.14C118.86 115.327 119.159 115.611 119.374 115.994C119.598 116.367 119.71 116.839 119.71 117.408V122H117.792V117.968C117.792 117.361 117.675 116.946 117.442 116.722C117.208 116.489 116.91 116.372 116.546 116.372C116.275 116.372 116.014 116.437 115.762 116.568C115.519 116.689 115.318 116.895 115.16 117.184C115.01 117.464 114.936 117.837 114.936 118.304V122H113.018ZM125.676 117.534C125.676 117.133 125.559 116.82 125.326 116.596C125.102 116.372 124.803 116.26 124.43 116.26C124.084 116.26 123.781 116.349 123.52 116.526C123.258 116.703 123.067 116.997 122.946 117.408L121.308 116.904C121.466 116.288 121.812 115.793 122.344 115.42C122.885 115.047 123.608 114.86 124.514 114.86C125.13 114.86 125.666 114.958 126.124 115.154C126.581 115.341 126.936 115.625 127.188 116.008C127.449 116.391 127.58 116.871 127.58 117.45V120.292C127.58 120.647 127.748 120.824 128.084 120.824C128.242 120.824 128.392 120.801 128.532 120.754L128.42 121.944C128.177 122.065 127.874 122.126 127.51 122.126C127.183 122.126 126.889 122.07 126.628 121.958C126.366 121.846 126.161 121.678 126.012 121.454C125.862 121.221 125.788 120.931 125.788 120.586V120.53L126.124 120.474C126.068 120.829 125.914 121.132 125.662 121.384C125.41 121.627 125.102 121.813 124.738 121.944C124.383 122.075 124.014 122.14 123.632 122.14C123.156 122.14 122.745 122.07 122.4 121.93C122.054 121.781 121.788 121.566 121.602 121.286C121.415 121.006 121.322 120.661 121.322 120.25C121.322 119.727 121.49 119.303 121.826 118.976C122.162 118.64 122.642 118.411 123.268 118.29L125.9 117.758L125.886 118.948L124.206 119.284C123.888 119.349 123.646 119.438 123.478 119.55C123.319 119.653 123.24 119.825 123.24 120.068C123.24 120.301 123.324 120.479 123.492 120.6C123.669 120.721 123.879 120.782 124.122 120.782C124.318 120.782 124.509 120.759 124.696 120.712C124.882 120.665 125.05 120.591 125.2 120.488C125.349 120.385 125.466 120.245 125.55 120.068C125.634 119.891 125.676 119.676 125.676 119.424V117.534ZM129.725 122V115H131.391L131.517 116.372C131.703 115.887 131.974 115.513 132.329 115.252C132.693 114.991 133.145 114.86 133.687 114.86C133.845 114.86 133.99 114.874 134.121 114.902C134.251 114.93 134.359 114.967 134.443 115.014L134.219 116.624C134.125 116.587 134.009 116.559 133.869 116.54C133.738 116.521 133.565 116.512 133.351 116.512C133.071 116.512 132.8 116.582 132.539 116.722C132.277 116.853 132.063 117.058 131.895 117.338C131.727 117.609 131.643 117.954 131.643 118.374V122H129.725ZM141.866 113.334L142.09 114.706C142.053 114.706 142.011 114.706 141.964 114.706C141.927 114.697 141.885 114.692 141.838 114.692C141.409 114.692 141.087 114.79 140.872 114.986C140.658 115.173 140.55 115.434 140.55 115.77L139.766 115.448C139.766 115.075 139.841 114.729 139.99 114.412C140.14 114.085 140.359 113.824 140.648 113.628C140.947 113.432 141.302 113.334 141.712 113.334C141.731 113.334 141.754 113.334 141.782 113.334C141.81 113.334 141.838 113.334 141.866 113.334ZM139.57 120.684C140.326 120.684 140.91 120.847 141.32 121.174C141.731 121.501 141.936 121.958 141.936 122.546C141.936 123.078 141.782 123.526 141.474 123.89C141.166 124.263 140.732 124.543 140.172 124.73C139.622 124.917 138.982 125.01 138.254 125.01C137.05 125.01 136.168 124.842 135.608 124.506C135.058 124.17 134.782 123.731 134.782 123.19C134.782 122.807 134.927 122.485 135.216 122.224C135.515 121.963 136.005 121.818 136.686 121.79L136.616 122.014C136.131 121.93 135.758 121.771 135.496 121.538C135.244 121.295 135.118 120.964 135.118 120.544C135.118 120.115 135.282 119.765 135.608 119.494C135.944 119.214 136.397 119.051 136.966 119.004L137.806 119.396H137.61C137.209 119.424 136.924 119.508 136.756 119.648C136.598 119.779 136.518 119.928 136.518 120.096C136.518 120.292 136.593 120.441 136.742 120.544C136.901 120.637 137.125 120.684 137.414 120.684H139.57ZM138.268 123.694C138.754 123.694 139.15 123.652 139.458 123.568C139.776 123.484 140.009 123.377 140.158 123.246C140.317 123.115 140.396 122.971 140.396 122.812C140.396 122.635 140.326 122.49 140.186 122.378C140.046 122.275 139.794 122.224 139.43 122.224H137.064C136.84 122.224 136.654 122.28 136.504 122.392C136.364 122.504 136.294 122.658 136.294 122.854C136.294 123.115 136.467 123.321 136.812 123.47C137.167 123.619 137.652 123.694 138.268 123.694ZM138.282 114.86C138.936 114.86 139.5 114.958 139.976 115.154C140.462 115.341 140.83 115.611 141.082 115.966C141.344 116.321 141.474 116.745 141.474 117.24C141.474 117.725 141.344 118.145 141.082 118.5C140.83 118.855 140.462 119.13 139.976 119.326C139.5 119.513 138.936 119.606 138.282 119.606C137.246 119.606 136.453 119.396 135.902 118.976C135.361 118.547 135.09 117.968 135.09 117.24C135.09 116.745 135.216 116.321 135.468 115.966C135.73 115.611 136.098 115.341 136.574 115.154C137.05 114.958 137.62 114.86 138.282 114.86ZM138.282 116.064C137.909 116.064 137.601 116.167 137.358 116.372C137.116 116.577 136.994 116.862 136.994 117.226C136.994 117.59 137.116 117.879 137.358 118.094C137.601 118.299 137.909 118.402 138.282 118.402C138.656 118.402 138.959 118.299 139.192 118.094C139.435 117.879 139.556 117.59 139.556 117.226C139.556 116.862 139.435 116.577 139.192 116.372C138.959 116.167 138.656 116.064 138.282 116.064ZM146.344 122.14C145.607 122.14 144.963 121.995 144.412 121.706C143.871 121.417 143.451 121.001 143.152 120.46C142.853 119.919 142.704 119.265 142.704 118.5C142.704 117.735 142.853 117.081 143.152 116.54C143.451 115.999 143.866 115.583 144.398 115.294C144.939 115.005 145.555 114.86 146.246 114.86C146.955 114.86 147.557 115.005 148.052 115.294C148.547 115.574 148.925 115.961 149.186 116.456C149.447 116.941 149.578 117.497 149.578 118.122C149.578 118.309 149.573 118.486 149.564 118.654C149.555 118.822 149.541 118.971 149.522 119.102H143.936V117.772H148.682L147.758 118.108C147.758 117.52 147.623 117.067 147.352 116.75C147.091 116.433 146.717 116.274 146.232 116.274C145.877 116.274 145.569 116.358 145.308 116.526C145.056 116.694 144.865 116.946 144.734 117.282C144.603 117.609 144.538 118.024 144.538 118.528C144.538 119.023 144.608 119.433 144.748 119.76C144.897 120.077 145.103 120.315 145.364 120.474C145.635 120.633 145.957 120.712 146.33 120.712C146.741 120.712 147.072 120.633 147.324 120.474C147.576 120.315 147.772 120.096 147.912 119.816L149.438 120.404C149.289 120.768 149.06 121.081 148.752 121.342C148.453 121.603 148.094 121.804 147.674 121.944C147.263 122.075 146.82 122.14 146.344 122.14ZM152.295 114.86C152.669 114.86 152.963 114.963 153.177 115.168C153.401 115.373 153.513 115.649 153.513 115.994C153.513 116.349 153.401 116.629 153.177 116.834C152.963 117.03 152.669 117.128 152.295 117.128C151.922 117.128 151.623 117.03 151.399 116.834C151.185 116.629 151.077 116.349 151.077 115.994C151.077 115.649 151.185 115.373 151.399 115.168C151.623 114.963 151.922 114.86 152.295 114.86ZM152.295 119.858C152.669 119.858 152.963 119.961 153.177 120.166C153.401 120.371 153.513 120.647 153.513 120.992C153.513 121.347 153.401 121.627 153.177 121.832C152.963 122.028 152.669 122.126 152.295 122.126C151.922 122.126 151.623 122.028 151.399 121.832C151.185 121.627 151.077 121.347 151.077 120.992C151.077 120.647 151.185 120.371 151.399 120.166C151.623 119.961 151.922 119.858 152.295 119.858Z" fill="black" fill-opacity="0.6"/>
<path d="M28.226 197H26.224L25.454 194.746H21.912L21.142 197H19.168L22.542 187.76H24.852L28.226 197ZM22.346 193.318H25.02L23.676 189.286L22.346 193.318ZM32.4008 189.86C33.0262 189.86 33.5535 189.953 33.9828 190.14C34.4215 190.317 34.7715 190.565 35.0328 190.882C35.3035 191.19 35.4948 191.535 35.6068 191.918L33.8148 192.562C33.7215 192.142 33.5628 191.825 33.3388 191.61C33.1148 191.395 32.8115 191.288 32.4288 191.288C32.0742 191.288 31.7708 191.372 31.5188 191.54C31.2668 191.699 31.0755 191.946 30.9448 192.282C30.8142 192.609 30.7488 193.019 30.7488 193.514C30.7488 194.009 30.8142 194.419 30.9448 194.746C31.0848 195.073 31.2808 195.315 31.5328 195.474C31.7942 195.633 32.0975 195.712 32.4428 195.712C32.7228 195.712 32.9608 195.665 33.1568 195.572C33.3528 195.469 33.5115 195.325 33.6328 195.138C33.7635 194.951 33.8522 194.727 33.8988 194.466L35.6348 195.026C35.5322 195.446 35.3408 195.815 35.0608 196.132C34.7808 196.449 34.4215 196.697 33.9828 196.874C33.5442 197.051 33.0355 197.14 32.4568 197.14C31.7382 197.14 31.1035 196.995 30.5528 196.706C30.0022 196.417 29.5775 196.001 29.2788 195.46C28.9802 194.919 28.8308 194.265 28.8308 193.5C28.8308 192.735 28.9802 192.081 29.2788 191.54C29.5775 190.999 29.9975 190.583 30.5388 190.294C31.0802 190.005 31.7008 189.86 32.4008 189.86ZM39.6032 187.858V194.718C39.6032 195.054 39.6872 195.301 39.8552 195.46C40.0325 195.609 40.2705 195.684 40.5692 195.684C40.8025 195.684 41.0079 195.651 41.1852 195.586C41.3625 195.511 41.5212 195.413 41.6612 195.292L41.9692 196.566C41.7452 196.743 41.4652 196.883 41.1292 196.986C40.7932 197.089 40.4385 197.14 40.0652 197.14C39.5985 197.14 39.1832 197.07 38.8192 196.93C38.4645 196.79 38.1845 196.566 37.9792 196.258C37.7832 195.95 37.6852 195.539 37.6852 195.026V188.39L39.6032 187.858ZM41.8432 190V191.428H36.3972V190H41.8432ZM45.5768 197.14C45.1101 197.14 44.6901 197.056 44.3168 196.888C43.9435 196.72 43.6448 196.454 43.4208 196.09C43.2061 195.717 43.0988 195.236 43.0988 194.648V190H45.0168V194.186C45.0168 194.727 45.1288 195.105 45.3528 195.32C45.5768 195.525 45.8988 195.628 46.3188 195.628C46.5148 195.628 46.7061 195.595 46.8928 195.53C47.0795 195.455 47.2428 195.343 47.3828 195.194C47.5321 195.045 47.6488 194.853 47.7328 194.62C47.8168 194.377 47.8588 194.093 47.8588 193.766V190H49.7768V197H48.0688L47.9988 195.782C47.7655 196.249 47.4435 196.594 47.0328 196.818C46.6315 197.033 46.1461 197.14 45.5768 197.14ZM55.7851 192.534C55.7851 192.133 55.6684 191.82 55.4351 191.596C55.2111 191.372 54.9124 191.26 54.5391 191.26C54.1938 191.26 53.8904 191.349 53.6291 191.526C53.3678 191.703 53.1764 191.997 53.0551 192.408L51.4171 191.904C51.5758 191.288 51.9211 190.793 52.4531 190.42C52.9944 190.047 53.7178 189.86 54.6231 189.86C55.2391 189.86 55.7758 189.958 56.2331 190.154C56.6904 190.341 57.0451 190.625 57.2971 191.008C57.5584 191.391 57.6891 191.871 57.6891 192.45V195.292C57.6891 195.647 57.8571 195.824 58.1931 195.824C58.3518 195.824 58.5011 195.801 58.6411 195.754L58.5291 196.944C58.2864 197.065 57.9831 197.126 57.6191 197.126C57.2924 197.126 56.9984 197.07 56.7371 196.958C56.4758 196.846 56.2704 196.678 56.1211 196.454C55.9718 196.221 55.8971 195.931 55.8971 195.586V195.53L56.2331 195.474C56.1771 195.829 56.0231 196.132 55.7711 196.384C55.5191 196.627 55.2111 196.813 54.8471 196.944C54.4924 197.075 54.1238 197.14 53.7411 197.14C53.2651 197.14 52.8544 197.07 52.5091 196.93C52.1638 196.781 51.8978 196.566 51.7111 196.286C51.5244 196.006 51.4311 195.661 51.4311 195.25C51.4311 194.727 51.5991 194.303 51.9351 193.976C52.2711 193.64 52.7518 193.411 53.3771 193.29L56.0091 192.758L55.9951 193.948L54.3151 194.284C53.9978 194.349 53.7551 194.438 53.5871 194.55C53.4284 194.653 53.3491 194.825 53.3491 195.068C53.3491 195.301 53.4331 195.479 53.6011 195.6C53.7784 195.721 53.9884 195.782 54.2311 195.782C54.4271 195.782 54.6184 195.759 54.8051 195.712C54.9918 195.665 55.1598 195.591 55.3091 195.488C55.4584 195.385 55.5751 195.245 55.6591 195.068C55.7431 194.891 55.7851 194.676 55.7851 194.424V192.534ZM61.7242 186.934V194.844C61.7242 195.171 61.7802 195.399 61.8922 195.53C62.0042 195.661 62.1908 195.726 62.4522 195.726C62.6108 195.726 62.7415 195.717 62.8442 195.698C62.9468 195.67 63.0775 195.633 63.2362 195.586L63.0682 196.846C62.9095 196.939 62.7088 197.009 62.4662 197.056C62.2328 197.112 61.9995 197.14 61.7662 197.14C61.0848 197.14 60.5855 196.977 60.2682 196.65C59.9602 196.314 59.8062 195.782 59.8062 195.054V186.934H61.7242ZM71.2413 186.794C71.568 186.794 71.862 186.831 72.1233 186.906C72.394 186.971 72.5947 187.055 72.7253 187.158L72.4593 188.432C72.3567 188.367 72.24 188.315 72.1093 188.278C71.9787 188.241 71.8247 188.222 71.6473 188.222C71.2833 188.222 70.994 188.306 70.7793 188.474C70.5647 188.633 70.4573 188.908 70.4573 189.3V190.266L70.5413 190.644V197H68.6233V189.16C68.6233 188.768 68.6887 188.423 68.8193 188.124C68.95 187.825 69.132 187.578 69.3653 187.382C69.5987 187.186 69.874 187.041 70.1913 186.948C70.518 186.845 70.868 186.794 71.2413 186.794ZM72.6693 190V191.428H67.4053V190H72.6693ZM76.9455 197.14C76.2081 197.14 75.5641 196.995 75.0135 196.706C74.4721 196.417 74.0521 196.001 73.7535 195.46C73.4548 194.919 73.3055 194.265 73.3055 193.5C73.3055 192.735 73.4548 192.081 73.7535 191.54C74.0521 190.999 74.4675 190.583 74.9995 190.294C75.5408 190.005 76.1568 189.86 76.8475 189.86C77.5568 189.86 78.1588 190.005 78.6535 190.294C79.1481 190.574 79.5261 190.961 79.7875 191.456C80.0488 191.941 80.1795 192.497 80.1795 193.122C80.1795 193.309 80.1748 193.486 80.1655 193.654C80.1561 193.822 80.1421 193.971 80.1235 194.102H74.5375V192.772H79.2835L78.3595 193.108C78.3595 192.52 78.2241 192.067 77.9535 191.75C77.6921 191.433 77.3188 191.274 76.8335 191.274C76.4788 191.274 76.1708 191.358 75.9095 191.526C75.6575 191.694 75.4661 191.946 75.3355 192.282C75.2048 192.609 75.1395 193.024 75.1395 193.528C75.1395 194.023 75.2095 194.433 75.3495 194.76C75.4988 195.077 75.7041 195.315 75.9655 195.474C76.2361 195.633 76.5581 195.712 76.9315 195.712C77.3421 195.712 77.6735 195.633 77.9255 195.474C78.1775 195.315 78.3735 195.096 78.5135 194.816L80.0395 195.404C79.8901 195.768 79.6615 196.081 79.3535 196.342C79.0548 196.603 78.6955 196.804 78.2755 196.944C77.8648 197.075 77.4215 197.14 76.9455 197.14ZM85.0529 197.14C84.3155 197.14 83.6715 196.995 83.1209 196.706C82.5795 196.417 82.1595 196.001 81.8609 195.46C81.5622 194.919 81.4129 194.265 81.4129 193.5C81.4129 192.735 81.5622 192.081 81.8609 191.54C82.1595 190.999 82.5749 190.583 83.1069 190.294C83.6482 190.005 84.2642 189.86 84.9549 189.86C85.6642 189.86 86.2662 190.005 86.7609 190.294C87.2555 190.574 87.6335 190.961 87.8949 191.456C88.1562 191.941 88.2869 192.497 88.2869 193.122C88.2869 193.309 88.2822 193.486 88.2729 193.654C88.2635 193.822 88.2495 193.971 88.2309 194.102H82.6449V192.772H87.3909L86.4669 193.108C86.4669 192.52 86.3315 192.067 86.0609 191.75C85.7995 191.433 85.4262 191.274 84.9409 191.274C84.5862 191.274 84.2782 191.358 84.0169 191.526C83.7649 191.694 83.5735 191.946 83.4429 192.282C83.3122 192.609 83.2469 193.024 83.2469 193.528C83.2469 194.023 83.3169 194.433 83.4569 194.76C83.6062 195.077 83.8115 195.315 84.0729 195.474C84.3435 195.633 84.6655 195.712 85.0389 195.712C85.4495 195.712 85.7809 195.633 86.0329 195.474C86.2849 195.315 86.4809 195.096 86.6209 194.816L88.1469 195.404C87.9975 195.768 87.7689 196.081 87.4609 196.342C87.1622 196.603 86.8029 196.804 86.3829 196.944C85.9722 197.075 85.5289 197.14 85.0529 197.14ZM96.5055 187.858V194.718C96.5055 195.054 96.5895 195.301 96.7575 195.46C96.9349 195.609 97.1729 195.684 97.4715 195.684C97.7049 195.684 97.9102 195.651 98.0875 195.586C98.2649 195.511 98.4235 195.413 98.5635 195.292L98.8715 196.566C98.6475 196.743 98.3675 196.883 98.0315 196.986C97.6955 197.089 97.3409 197.14 96.9675 197.14C96.5009 197.14 96.0855 197.07 95.7215 196.93C95.3669 196.79 95.0869 196.566 94.8815 196.258C94.6855 195.95 94.5875 195.539 94.5875 195.026V188.39L96.5055 187.858ZM98.7455 190V191.428H93.2995V190H98.7455ZM103.235 189.86C103.944 189.86 104.565 190.005 105.097 190.294C105.638 190.583 106.058 190.999 106.357 191.54C106.665 192.081 106.819 192.735 106.819 193.5C106.819 194.256 106.665 194.909 106.357 195.46C106.058 196.001 105.638 196.417 105.097 196.706C104.565 196.995 103.944 197.14 103.235 197.14C102.535 197.14 101.914 196.995 101.373 196.706C100.832 196.417 100.407 196.001 100.099 195.46C99.8005 194.909 99.6512 194.256 99.6512 193.5C99.6512 192.735 99.8005 192.081 100.099 191.54C100.407 190.999 100.832 190.583 101.373 190.294C101.914 190.005 102.535 189.86 103.235 189.86ZM103.235 191.288C102.88 191.288 102.577 191.372 102.325 191.54C102.082 191.699 101.896 191.941 101.765 192.268C101.634 192.595 101.569 193.005 101.569 193.5C101.569 193.995 101.634 194.405 101.765 194.732C101.896 195.059 102.082 195.306 102.325 195.474C102.577 195.633 102.88 195.712 103.235 195.712C103.58 195.712 103.874 195.633 104.117 195.474C104.369 195.306 104.56 195.059 104.691 194.732C104.822 194.405 104.887 193.995 104.887 193.5C104.887 193.005 104.822 192.595 104.691 192.268C104.56 191.941 104.369 191.699 104.117 191.54C103.874 191.372 103.58 191.288 103.235 191.288ZM112.703 199.94V190H114.425L114.551 192.226L114.313 191.974C114.397 191.563 114.551 191.199 114.775 190.882C115.009 190.565 115.303 190.317 115.657 190.14C116.012 189.953 116.409 189.86 116.847 189.86C117.417 189.86 117.925 190.005 118.373 190.294C118.821 190.583 119.171 190.999 119.423 191.54C119.685 192.072 119.815 192.721 119.815 193.486C119.815 194.251 119.685 194.909 119.423 195.46C119.162 196.001 118.803 196.417 118.345 196.706C117.897 196.995 117.384 197.14 116.805 197.14C116.189 197.14 115.676 196.967 115.265 196.622C114.864 196.277 114.589 195.843 114.439 195.32L114.621 195.026V199.94H112.703ZM116.245 195.67C116.759 195.67 117.16 195.488 117.449 195.124C117.748 194.751 117.897 194.209 117.897 193.5C117.897 192.791 117.753 192.254 117.463 191.89C117.183 191.517 116.787 191.33 116.273 191.33C115.947 191.33 115.657 191.419 115.405 191.596C115.163 191.764 114.971 192.011 114.831 192.338C114.691 192.655 114.621 193.043 114.621 193.5C114.621 193.948 114.687 194.335 114.817 194.662C114.948 194.989 115.135 195.241 115.377 195.418C115.629 195.586 115.919 195.67 116.245 195.67ZM125.43 192.534C125.43 192.133 125.313 191.82 125.08 191.596C124.856 191.372 124.557 191.26 124.184 191.26C123.838 191.26 123.535 191.349 123.274 191.526C123.012 191.703 122.821 191.997 122.7 192.408L121.062 191.904C121.22 191.288 121.566 190.793 122.098 190.42C122.639 190.047 123.362 189.86 124.268 189.86C124.884 189.86 125.42 189.958 125.878 190.154C126.335 190.341 126.69 190.625 126.942 191.008C127.203 191.391 127.334 191.871 127.334 192.45V195.292C127.334 195.647 127.502 195.824 127.838 195.824C127.996 195.824 128.146 195.801 128.286 195.754L128.174 196.944C127.931 197.065 127.628 197.126 127.264 197.126C126.937 197.126 126.643 197.07 126.382 196.958C126.12 196.846 125.915 196.678 125.766 196.454C125.616 196.221 125.542 195.931 125.542 195.586V195.53L125.878 195.474C125.822 195.829 125.668 196.132 125.416 196.384C125.164 196.627 124.856 196.813 124.492 196.944C124.137 197.075 123.768 197.14 123.386 197.14C122.91 197.14 122.499 197.07 122.154 196.93C121.808 196.781 121.542 196.566 121.356 196.286C121.169 196.006 121.076 195.661 121.076 195.25C121.076 194.727 121.244 194.303 121.58 193.976C121.916 193.64 122.396 193.411 123.022 193.29L125.654 192.758L125.64 193.948L123.96 194.284C123.642 194.349 123.4 194.438 123.232 194.55C123.073 194.653 122.994 194.825 122.994 195.068C122.994 195.301 123.078 195.479 123.246 195.6C123.423 195.721 123.633 195.782 123.876 195.782C124.072 195.782 124.263 195.759 124.45 195.712C124.636 195.665 124.804 195.591 124.954 195.488C125.103 195.385 125.22 195.245 125.304 195.068C125.388 194.891 125.43 194.676 125.43 194.424V192.534ZM135.621 190L132.793 197.434C132.569 198.069 132.317 198.573 132.037 198.946C131.767 199.319 131.449 199.59 131.085 199.758C130.731 199.926 130.306 200.01 129.811 200.01C129.447 200.01 129.111 199.963 128.803 199.87C128.505 199.786 128.243 199.674 128.019 199.534L128.425 198.148C128.603 198.288 128.789 198.386 128.985 198.442C129.181 198.507 129.405 198.54 129.657 198.54C129.919 198.54 130.143 198.484 130.329 198.372C130.525 198.26 130.689 198.036 130.819 197.7L131.057 197.098L130.287 195.278L128.145 190H130.273L131.603 194.2L131.967 195.6L132.401 194.116L133.675 190H135.621ZM137.776 189.86C138.149 189.86 138.443 189.963 138.658 190.168C138.882 190.373 138.994 190.649 138.994 190.994C138.994 191.349 138.882 191.629 138.658 191.834C138.443 192.03 138.149 192.128 137.776 192.128C137.402 192.128 137.104 192.03 136.88 191.834C136.665 191.629 136.558 191.349 136.558 190.994C136.558 190.649 136.665 190.373 136.88 190.168C137.104 189.963 137.402 189.86 137.776 189.86ZM137.776 194.858C138.149 194.858 138.443 194.961 138.658 195.166C138.882 195.371 138.994 195.647 138.994 195.992C138.994 196.347 138.882 196.627 138.658 196.832C138.443 197.028 138.149 197.126 137.776 197.126C137.402 197.126 137.104 197.028 136.88 196.832C136.665 196.627 136.558 196.347 136.558 195.992C136.558 195.647 136.665 195.371 136.88 195.166C137.104 194.961 137.402 194.858 137.776 194.858Z" fill="black" fill-opacity="0.6"/>
<rect x="18.5" y="65.5" width="594" height="38" stroke="#4B4DED"/>
<rect x="19.5" y="136.5" width="594" height="38" stroke="#4B4DED"/>
<rect x="19.5" y="136.5" width="594" height="38" stroke="#4B4DED"/>
<rect x="19.5" y="211.5" width="594" height="38" stroke="#4B4DED"/>
</g>
<defs>
<clipPath id="clip0_418_138">
<rect width="1280" height="720" fill="white" transform="translate(-488 -334)"/>
</clipPath>
</defs>
</svg>
