<svg width="18" height="14" viewBox="0 0 18 14" fill="none" xmlns="http://www.w3.org/2000/svg">
<path d="M9.75855 3.88944L13.1474 6.42989L9.75855 3.88944ZM11.9378 1.6514L2.77443 8.52392C2.30096 8.87853 1.97806 9.33032 1.84642 9.82235L1 13L5.23687 12.364C5.89288 12.2656 6.49449 12.0244 6.9681 11.6692L16.1315 4.79666C16.4068 4.59014 16.6253 4.34496 16.7743 4.07513C16.9233 3.8053 17 3.51609 17 3.22403C17 2.93197 16.9233 2.64276 16.7743 2.37293C16.6253 2.1031 16.4068 1.85792 16.1315 1.6514C15.8561 1.44488 15.5292 1.28106 15.1694 1.16929C14.8097 1.05753 14.424 1 14.0346 1C13.6452 1 13.2596 1.05753 12.8998 1.16929C12.54 1.28106 12.2132 1.44488 11.9378 1.6514V1.6514Z" stroke="#3DF14F" stroke-width="2" stroke-linecap="round" stroke-linejoin="round"/>
</svg>
