<svg width="19" height="19" viewBox="0 0 19 19" fill="none" xmlns="http://www.w3.org/2000/svg">
<path d="M13.474 3.40783L15.592 5.52483L13.474 3.40783ZM14.836 1.54283L9.109 7.26983C8.81309 7.56533 8.61128 7.94181 8.529 8.35183L8 10.9998L10.648 10.4698C11.058 10.3878 11.434 10.1868 11.73 9.89083L17.457 4.16383C17.6291 3.99173 17.7656 3.78742 17.8588 3.56256C17.9519 3.33771 17.9998 3.09671 17.9998 2.85333C17.9998 2.60994 17.9519 2.36895 17.8588 2.14409C17.7656 1.91923 17.6291 1.71492 17.457 1.54283C17.2849 1.37073 17.0806 1.23421 16.8557 1.14108C16.6309 1.04794 16.3899 1 16.1465 1C15.9031 1 15.6621 1.04794 15.4373 1.14108C15.2124 1.23421 15.0081 1.37073 14.836 1.54283V1.54283Z" stroke="#C4C4C4" stroke-width="2" stroke-linecap="round" stroke-linejoin="round"/>
<path d="M16 12.9998V15.9998C16 16.5302 15.7893 17.039 15.4142 17.414C15.0391 17.7891 14.5304 17.9998 14 17.9998H3C2.46957 17.9998 1.96086 17.7891 1.58579 17.414C1.21071 17.039 1 16.5302 1 15.9998V4.99982C1 4.46938 1.21071 3.96068 1.58579 3.5856C1.96086 3.21053 2.46957 2.99982 3 2.99982H6" stroke="#C4C4C4" stroke-width="2" stroke-linecap="round" stroke-linejoin="round"/>
</svg>
