<svg width="16" height="17" viewBox="0 0 16 17" fill="none" xmlns="http://www.w3.org/2000/svg">
<path d="M8 0.159607C3.65117 0.159607 0.125 3.79428 0.125 8.27692C0.125 12.7596 3.65117 16.3942 8 16.3942C12.3488 16.3942 15.875 12.7596 15.875 8.27692C15.875 3.79428 12.3488 0.159607 8 0.159607ZM8 15.0172C4.38945 15.0172 1.46094 11.9986 1.46094 8.27692C1.46094 4.55527 4.38945 1.53665 8 1.53665C11.6105 1.53665 14.5391 4.55527 14.5391 8.27692C14.5391 11.9986 11.6105 15.0172 8 15.0172ZM10.8055 4.41757H9.75957C9.70684 4.41757 9.65762 4.44837 9.63477 4.49729L8.04219 7.75871H7.98242L6.38984 4.49729C6.37818 4.47344 6.36036 4.45338 6.33834 4.43931C6.31631 4.42524 6.29095 4.41772 6.26504 4.41757H5.19805C5.1752 4.41757 5.15234 4.42301 5.13125 4.43569C5.0627 4.47374 5.03809 4.56252 5.075 4.63319L7.0332 8.34396H5.95391C5.87656 8.34396 5.81328 8.40918 5.81328 8.48891V9.03067C5.81328 9.11039 5.87656 9.17562 5.95391 9.17562H7.39004V9.92574H5.95391C5.87656 9.92574 5.81328 9.99097 5.81328 10.0707V10.6125C5.81328 10.6922 5.87656 10.7574 5.95391 10.7574H7.39004V11.9913C7.39004 12.071 7.45332 12.1363 7.53066 12.1363H8.48516C8.5625 12.1363 8.62578 12.071 8.62578 11.9913V10.7574H10.0672C10.1445 10.7574 10.2078 10.6922 10.2078 10.6125V10.0707C10.2078 9.99097 10.1445 9.92574 10.0672 9.92574H8.62578V9.17381H10.0672C10.1445 9.17381 10.2078 9.10858 10.2078 9.02885V8.4871C10.2078 8.40737 10.1445 8.34214 10.0672 8.34214H8.97734L10.9303 4.63137C10.9408 4.60963 10.9479 4.58608 10.9479 4.56252C10.9461 4.4828 10.8828 4.41757 10.8055 4.41757Z" fill="#3B00D8"/>
</svg>
