<svg width="15" height="11" viewBox="0 0 15 11" fill="none" xmlns="http://www.w3.org/2000/svg">
<path fill-rule="evenodd" clip-rule="evenodd" d="M14.097 4.62784C11.9813 1.58523 9.73995 0 7.60335 0C5.46674 0 3.2254 1.58523 1.10974 4.62784C0.900269 4.90909 0.900269 5.34375 1.10974 5.625C3.2254 8.64205 5.46674 10.2273 7.60335 10.2273C9.73995 10.2273 11.9813 8.64205 14.097 5.59943C14.2855 5.31818 14.2855 4.90909 14.097 4.62784ZM7.60339 9.20452C5.78099 9.20452 3.74912 7.74714 1.86388 5.11361C3.74912 2.48009 5.78099 1.02271 7.60339 1.02271C9.42579 1.02271 11.4577 2.48009 13.3429 5.11361C11.4577 7.74714 9.42579 9.20452 7.60339 9.20452ZM7.60338 2.04541C6.22087 2.04541 5.08973 3.42609 5.08973 5.11359C5.08973 6.80109 6.22087 8.18177 7.60338 8.18177C8.9859 8.18177 10.117 6.80109 10.117 5.11359C10.117 3.42609 8.9859 2.04541 7.60338 2.04541ZM7.60332 7.15915C6.68165 7.15915 5.92755 6.23869 5.92755 5.11369C5.92755 3.98869 6.68165 3.06824 7.60332 3.06824C8.525 3.06824 9.27909 3.98869 9.27909 5.11369C9.27909 6.23869 8.525 7.15915 7.60332 7.15915Z" fill="black"/>
</svg>
