<svg width="20" height="20" viewBox="0 0 20 20" fill="none" xmlns="http://www.w3.org/2000/svg">
<path d="M10.0037 9.38673e-06C8.13468 -0.00255233 6.30239 0.519268 4.71513 1.50616C3.12786 2.49305 1.84929 3.90543 1.02473 5.58277C0.200164 7.26011 -0.137313 9.13512 0.050652 10.9947C0.238617 12.8543 0.944487 14.6238 2.08803 16.1022C3.23157 17.5806 4.76692 18.7086 6.51957 19.3579C8.27222 20.0072 10.1719 20.1518 12.0026 19.7752C13.8333 19.3987 15.5217 18.5161 16.8759 17.2279C18.23 15.9396 19.1956 14.2972 19.6628 12.4875H17.0642C16.6063 13.7828 15.8011 14.9271 14.7366 15.7956C13.6721 16.664 12.3894 17.2231 11.0286 17.4116C9.66788 17.6002 8.28146 17.411 7.02096 16.8648C5.76045 16.3185 4.6744 15.4363 3.88152 14.3144C3.08863 13.1925 2.61946 11.8743 2.52527 10.5037C2.43109 9.13318 2.71552 7.76313 3.34748 6.54334C3.97944 5.32356 4.93459 4.301 6.10852 3.58746C7.28245 2.87392 8.62996 2.49686 10.0037 2.49752C10.9863 2.49895 11.9588 2.69627 12.8643 3.07792C13.7698 3.45958 14.59 4.01792 15.2772 4.7203L11.2587 8.74129H20V9.38673e-06L17.0642 2.93458C16.1391 2.00386 15.039 1.2654 13.8272 0.761749C12.6154 0.258097 11.316 -0.000787907 10.0037 9.38673e-06Z" fill="black"/>
</svg>
