<svg width="17" height="18" viewBox="0 0 17 18" fill="none" xmlns="http://www.w3.org/2000/svg">
<path d="M16.7755 11.2608L15.4627 10.1385C15.5249 9.75766 15.5569 9.36883 15.5569 8.98001C15.5569 8.59119 15.5249 8.20237 15.4627 7.82156L16.7755 6.69918C16.8745 6.61442 16.9454 6.50152 16.9787 6.37549C17.012 6.24947 17.0061 6.1163 16.9619 5.99369L16.9439 5.94158C16.5825 4.93149 16.0413 3.99513 15.3465 3.17773L15.3104 3.13564C15.2261 3.03653 15.1138 2.96529 14.9882 2.9313C14.8626 2.89731 14.7297 2.90217 14.6069 2.94524L12.9775 3.52446C12.3762 3.03142 11.7048 2.64259 10.9792 2.37002L10.6646 0.666411C10.6408 0.538224 10.5787 0.420295 10.4863 0.328291C10.3939 0.236287 10.2758 0.174563 10.1475 0.15132L10.0934 0.141299C9.04916 -0.0470997 7.95084 -0.0470997 6.90663 0.141299L6.85251 0.15132C6.72423 0.174563 6.60606 0.236287 6.5137 0.328291C6.42134 0.420295 6.35916 0.538224 6.33542 0.666411L6.01875 2.37803C5.299 2.65067 4.62874 3.03929 4.03455 3.52847L2.39307 2.94524C2.27034 2.90183 2.13731 2.89679 2.01165 2.9308C1.886 2.96481 1.77366 3.03626 1.68958 3.13564L1.6535 3.17773C0.959528 3.99571 0.418442 4.93192 0.0561229 5.94158L0.0380847 5.99369C-0.0521063 6.24422 0.0220508 6.52481 0.224479 6.69918L1.55329 7.83358C1.49116 8.21038 1.4611 8.5952 1.4611 8.97801C1.4611 9.36282 1.49116 9.74764 1.55329 10.1224L0.224479 11.2568C0.125461 11.3416 0.0545925 11.4545 0.0212971 11.5805C-0.0119983 11.7065 -0.00614301 11.8397 0.0380847 11.9623L0.0561229 12.0144C0.418891 13.0246 0.956028 13.9565 1.6535 14.7783L1.68958 14.8204C1.77387 14.9195 1.88621 14.9907 2.01179 15.0247C2.13737 15.0587 2.2703 15.0538 2.39307 15.0108L4.03455 14.4275C4.63181 14.9186 5.29922 15.3074 6.01875 15.578L6.33542 17.2896C6.35916 17.4178 6.42134 17.5357 6.5137 17.6277C6.60606 17.7197 6.72423 17.7815 6.85251 17.8047L6.90663 17.8147C7.96043 18.0041 9.03957 18.0041 10.0934 17.8147L10.1475 17.8047C10.2758 17.7815 10.3939 17.7197 10.4863 17.6277C10.5787 17.5357 10.6408 17.4178 10.6646 17.2896L10.9792 15.586C11.7045 15.3141 12.3797 14.924 12.9775 14.4316L14.6069 15.0108C14.7297 15.0542 14.8627 15.0592 14.9883 15.0252C15.114 14.9912 15.2263 14.9198 15.3104 14.8204L15.3465 14.7783C16.044 13.9545 16.5811 13.0246 16.9439 12.0144L16.9619 11.9623C17.0521 11.7158 16.9779 11.4352 16.7755 11.2608ZM14.0397 8.05806C14.0898 8.3607 14.1159 8.67136 14.1159 8.98202C14.1159 9.29267 14.0898 9.60333 14.0397 9.90597L13.9074 10.7097L15.4046 11.9904C15.1777 12.5133 14.8912 13.0082 14.5508 13.4655L12.6909 12.8061L12.0615 13.3232C11.5825 13.716 11.0494 14.0247 10.4722 14.2412L9.70856 14.5278L9.3498 16.4719C8.78374 16.536 8.21225 16.536 7.64619 16.4719L7.28743 14.5237L6.52983 14.2331C5.95862 14.0167 5.4275 13.708 4.95249 13.3172L4.32316 12.7981L2.45119 13.4635C2.11047 13.0045 1.82587 12.5095 1.59739 11.9884L3.11059 10.6956L2.98031 9.89395C2.93221 9.59531 2.90616 9.28666 2.90616 8.98202C2.90616 8.67537 2.93021 8.36872 2.98031 8.07009L3.11059 7.26839L1.59739 5.97565C1.82387 5.45254 2.11047 4.9595 2.45119 4.50053L4.32316 5.16594L4.95249 4.64684C5.4275 4.25601 5.95862 3.94736 6.52983 3.7309L7.28944 3.44429L7.6482 1.49617C8.21139 1.43203 8.78661 1.43203 9.3518 1.49617L9.71056 3.44028L10.4742 3.72689C11.0494 3.94335 11.5845 4.252 12.0635 4.64483L12.6929 5.16193L14.5528 4.50253C14.8935 4.9615 15.1781 5.45655 15.4066 5.97766L13.9095 7.25837L14.0397 8.05806ZM8.502 5.25412C6.55388 5.25412 4.97454 6.83347 4.97454 8.78159C4.97454 10.7297 6.55388 12.3091 8.502 12.3091C10.4501 12.3091 12.0295 10.7297 12.0295 8.78159C12.0295 6.83347 10.4501 5.25412 8.502 5.25412ZM10.0894 10.369C9.88117 10.5777 9.63374 10.7433 9.36132 10.8561C9.0889 10.969 8.79686 11.0268 8.502 11.0263C7.90274 11.0263 7.33954 10.7918 6.91464 10.369C6.70585 10.1608 6.54028 9.91333 6.42746 9.64091C6.31464 9.36849 6.25679 9.07645 6.25725 8.78159C6.25725 8.18232 6.49175 7.61913 6.91464 7.19423C7.33954 6.76933 7.90274 6.53684 8.502 6.53684C9.10127 6.53684 9.66447 6.76933 10.0894 7.19423C10.2982 7.40243 10.4637 7.64985 10.5766 7.92227C10.6894 8.19469 10.7472 8.48673 10.7468 8.78159C10.7468 9.38086 10.5123 9.94405 10.0894 10.369Z" fill="white"/>
</svg>
