<svg width="17" height="19" viewBox="0 0 17 19" fill="none" xmlns="http://www.w3.org/2000/svg">
<path d="M3.97926 0H14.0785C15.6652 0 17 1.40156 17 3.06756V15.8931C17 17.5591 15.6652 18.9607 14.0785 18.9607H3.97926C2.39259 18.9607 1.05778 17.5591 1.05778 15.8931V15.6022H0.554074C0.251852 15.6022 0 15.3642 0 15.0733C0 14.7824 0.251852 14.4916 0.554074 14.4916H1.05778V10.0489H0.554074C0.251852 10.0489 0 9.78444 0 9.49356C0 9.20267 0.251852 8.91178 0.554074 8.91178H1.05778V4.46911H0.554074C0.251852 4.46911 0 4.20467 0 3.91378C0 3.62289 0.251852 3.35844 0.554074 3.35844H1.05778V3.06756C1.05778 1.40156 2.39259 0 3.97926 0ZM15.3881 15.8931V3.06756C15.3881 2.30067 14.8089 1.69244 14.0785 1.69244H3.97926C3.24889 1.69244 2.64444 2.30067 2.64444 3.06756V3.35844H3.70222C3.97926 3.35844 4.2563 3.62289 4.2563 3.91378C4.2563 4.20467 3.97926 4.46911 3.70222 4.46911H2.64444V8.91178H3.70222C3.97926 8.91178 4.2563 9.20267 4.2563 9.49356C4.2563 9.78444 3.97926 10.0489 3.70222 10.0489H2.64444V14.4916H3.70222C3.97926 14.4916 4.2563 14.7824 4.2563 15.0733C4.2563 15.3642 3.97926 15.6022 3.70222 15.6022H2.64444V15.8931C2.64444 16.66 3.24889 17.2947 3.97926 17.2947H14.0785C14.8089 17.2947 15.3881 16.66 15.3881 15.8931ZM6.37185 3.35844H12.7437C13.0459 3.35844 13.2726 3.62289 13.2726 3.91378C13.2726 4.20467 13.0459 4.46911 12.7437 4.46911H6.37185C6.09481 4.46911 5.81778 4.20467 5.81778 3.91378C5.81778 3.62289 6.09481 3.35844 6.37185 3.35844ZM6.37185 5.57978H12.7437C13.0459 5.57978 13.2726 5.84422 13.2726 6.13511C13.2726 6.45244 13.0459 6.69044 12.7437 6.69044H6.37185C6.09481 6.69044 5.81778 6.45244 5.81778 6.13511C5.81778 5.84422 6.09481 5.57978 6.37185 5.57978ZM6.37185 7.80111H12.7437C13.0459 7.80111 13.2726 8.06556 13.2726 8.38289C13.2726 8.67378 13.0459 8.91178 12.7437 8.91178H6.37185C6.09481 8.91178 5.81778 8.67378 5.81778 8.38289C5.81778 8.06556 6.09481 7.80111 6.37185 7.80111ZM6.37185 10.0489H12.7437C13.0459 10.0489 13.2726 10.3133 13.2726 10.6042C13.2726 10.9216 13.0459 11.1596 12.7437 11.1596H6.37185C6.09481 11.1596 5.81778 10.9216 5.81778 10.6042C5.81778 10.3133 6.09481 10.0489 6.37185 10.0489ZM6.37185 12.2702H12.7437C13.0459 12.2702 13.2726 12.5347 13.2726 12.852C13.2726 13.1429 13.0459 13.3809 12.7437 13.3809H6.37185C6.09481 13.3809 5.81778 13.1429 5.81778 12.852C5.81778 12.5347 6.09481 12.2702 6.37185 12.2702ZM6.37185 14.4916H12.7437C13.0459 14.4916 13.2726 14.7824 13.2726 15.0733C13.2726 15.3642 13.0459 15.6022 12.7437 15.6022H6.37185C6.09481 15.6022 5.81778 15.3642 5.81778 15.0733C5.81778 14.7824 6.09481 14.4916 6.37185 14.4916Z" fill="white"/>
</svg>
