<svg width="21" height="20" viewBox="0 0 21 20" fill="none" xmlns="http://www.w3.org/2000/svg">
<path d="M1.80411 4.132C2.0016 3.24358 2.49615 2.44907 3.20612 1.87965C3.91608 1.31022 4.799 0.999929 5.70911 1H15.2911C16.2012 0.999929 17.0841 1.31022 17.7941 1.87965C18.5041 2.44907 18.9986 3.24358 19.1961 4.132L19.3431 4.794C20.1051 8.22284 20.1051 11.7772 19.3431 15.206L19.1961 15.868C18.9986 16.7564 18.5041 17.5509 17.7941 18.1204C17.0841 18.6898 16.2012 19.0001 15.2911 19H5.71011C4.8 19.0001 3.91708 18.6898 3.20712 18.1204C2.49715 17.5509 2.0026 16.7564 1.80511 15.868L1.65811 15.206C0.896191 11.7771 0.896191 8.22285 1.65811 4.794L1.80511 4.132H1.80411Z" stroke="white" stroke-width="2" stroke-linecap="round" stroke-linejoin="round"/>
<path d="M1 11H7.338C7.338 12 8.311 14 10.743 14C13.176 14 14.149 12 14.149 11H20" stroke="white" stroke-width="2" stroke-linejoin="round"/>
</svg>
