<svg width="116" height="104" viewBox="0 0 116 104" fill="none" xmlns="http://www.w3.org/2000/svg">
<path d="M96.8543 39.0357C98.9599 45.4552 99.4499 52.2949 98.2807 58.9489C97.1116 65.603 94.3195 71.866 90.1517 77.1832C85.9839 82.5004 80.5692 86.7077 74.387 89.4324C68.2048 92.1571 61.4461 93.3151 54.7095 92.8038C47.9729 92.2925 41.4664 90.1277 35.7662 86.5012C30.0661 82.8747 25.3483 77.8984 22.0308 72.013C18.7132 66.1277 16.8984 59.515 16.7469 52.7607C16.5954 46.0065 18.112 39.3191 21.1624 33.2909L33.1436 39.3536C31.0903 43.4115 30.0694 47.9131 30.1713 52.4597C30.2733 57.0063 31.495 61.4576 33.7282 65.4193C35.9614 69.3809 39.1371 72.7307 42.9741 75.1719C46.8111 77.6131 51.191 79.0703 55.7257 79.4145C60.2604 79.7587 64.81 78.9792 68.9715 77.145C73.133 75.3109 76.778 72.4788 79.5835 68.8995C82.389 65.3203 84.2685 61.1044 85.0555 56.6252C85.8425 52.1461 85.5127 47.542 84.0953 43.2207L96.8543 39.0357Z" fill="#A8BEFF"/>
<path d="M47.3727 43.195V49.963C47.3727 51.739 46.8927 53.065 45.9327 53.941C44.9847 54.817 43.5507 55.255 41.6307 55.255C39.7107 55.255 38.2707 54.817 37.3107 53.941C36.3627 53.065 35.8887 51.739 35.8887 49.963V43.195H40.1007V50.287C40.1007 50.887 40.2327 51.343 40.4967 51.655C40.7607 51.955 41.1387 52.105 41.6307 52.105C42.1347 52.105 42.5187 51.955 42.7827 51.655C43.0467 51.343 43.1787 50.887 43.1787 50.287V43.195H47.3727ZM66.2011 43.195V55.075H62.5471V50.953L62.6011 46.957H62.5471L60.2431 55.075H56.8951L54.6271 46.957H54.5551L54.6091 50.953V55.075H50.9371V43.195H56.8051L58.1731 48.469L58.6951 50.683H58.7311L59.2531 48.469L60.6211 43.195H66.2011ZM75.2075 43.015C76.3475 43.015 77.3675 43.159 78.2675 43.447C79.1795 43.723 79.9835 44.143 80.6795 44.707L78.9875 47.407C78.4235 47.011 77.8295 46.693 77.2055 46.453C76.5935 46.213 75.9275 46.093 75.2075 46.093C74.8955 46.093 74.6435 46.117 74.4515 46.165C74.2715 46.213 74.1395 46.279 74.0555 46.363C73.9835 46.447 73.9475 46.543 73.9475 46.651C73.9475 46.795 74.0555 46.903 74.2715 46.975C74.4995 47.047 74.7815 47.125 75.1175 47.209L76.7555 47.587C77.9675 47.863 78.8795 48.271 79.4915 48.811C80.1155 49.351 80.4275 50.101 80.4275 51.061C80.4275 52.021 80.1935 52.813 79.7255 53.437C79.2575 54.049 78.6215 54.505 77.8175 54.805C77.0255 55.105 76.1255 55.255 75.1175 55.255C74.3615 55.255 73.6055 55.189 72.8495 55.057C72.0935 54.913 71.3915 54.709 70.7435 54.445C70.0955 54.169 69.5375 53.839 69.0695 53.455L70.7255 50.701C71.0735 50.977 71.4935 51.229 71.9855 51.457C72.4775 51.673 72.9875 51.847 73.5155 51.979C74.0435 52.111 74.5355 52.177 74.9915 52.177C75.2795 52.177 75.5075 52.153 75.6755 52.105C75.8435 52.057 75.9575 51.997 76.0175 51.925C76.0895 51.841 76.1255 51.745 76.1255 51.637C76.1255 51.469 76.0535 51.343 75.9095 51.259C75.7775 51.175 75.5315 51.091 75.1715 51.007L73.3715 50.611C72.7355 50.467 72.1295 50.275 71.5535 50.035C70.9775 49.795 70.5095 49.447 70.1495 48.991C69.7895 48.523 69.6095 47.893 69.6095 47.101C69.6095 46.285 69.8255 45.571 70.2575 44.959C70.7015 44.347 71.3375 43.873 72.1655 43.537C73.0055 43.189 74.0195 43.015 75.2075 43.015Z" fill="#6154E4"/>
</svg>
