<svg width="24" height="23" viewBox="0 0 24 23" fill="none" xmlns="http://www.w3.org/2000/svg">
<path fill-rule="evenodd" clip-rule="evenodd" d="M5.23444 16.1831C5.06742 15.9532 4.99854 15.6665 5.04295 15.3859C5.08736 15.1052 5.24143 14.8538 5.47126 14.6867L15.5114 7.39036L9.08738 6.37521C8.94826 6.35319 8.81483 6.30399 8.69473 6.23041C8.57462 6.15683 8.47018 6.06031 8.38738 5.94636C8.30457 5.83242 8.24502 5.70328 8.21212 5.56632C8.17922 5.42937 8.17362 5.28727 8.19564 5.14815C8.21766 5.00902 8.26686 4.8756 8.34044 4.75549C8.41403 4.63539 8.51055 4.53095 8.62449 4.44814C8.73843 4.36534 8.86757 4.30578 9.00453 4.27289C9.14149 4.23999 9.28358 4.23439 9.42271 4.25641L18.4007 5.67729C18.5399 5.69914 18.6734 5.74824 18.7936 5.82177C18.9138 5.8953 19.0183 5.99182 19.1012 6.10581C19.184 6.21979 19.2435 6.349 19.2763 6.48603C19.3092 6.62305 19.3146 6.76521 19.2924 6.90436L17.8716 15.8823C17.8495 16.0215 17.8003 16.1549 17.7268 16.275C17.6532 16.3951 17.5567 16.4995 17.4427 16.5824C17.3288 16.6652 17.1996 16.7247 17.0627 16.7576C16.9257 16.7905 16.7836 16.7961 16.6445 16.7741C16.3635 16.7296 16.1117 16.5754 15.9445 16.3452C15.8617 16.2313 15.8021 16.1022 15.7692 15.9652C15.7363 15.8282 15.7307 15.6861 15.7528 15.547L16.7709 9.1235L6.73078 16.4199C6.50095 16.5869 6.21418 16.6558 5.93356 16.6114C5.65295 16.567 5.40147 16.4129 5.23444 16.1831Z" fill="#09A1CF"/>
</svg>
