<svg width="36" height="36" viewBox="0 0 36 36" fill="none" xmlns="http://www.w3.org/2000/svg">
<circle cx="17.6923" cy="17.6923" r="17.6923" fill="#20BBDD"/>
<path d="M17.7099 22.8184H14.8779L14.1419 20.4344H10.5259L9.77389 22.8184H7.00589L10.7179 12.2584H14.0139L17.7099 22.8184ZM11.0379 18.5624H13.6299L12.3339 14.2904L11.0379 18.5624ZM26.682 12.2584V18.7544C26.682 20.0877 26.298 21.1277 25.53 21.8744C24.762 22.6104 23.674 22.9784 22.266 22.9784C21.2314 22.9784 20.3994 22.797 19.77 22.4344C19.1407 22.061 18.7087 21.549 18.474 20.8984C18.2394 20.237 18.1914 19.485 18.33 18.6424L21.018 18.1624C20.89 19.133 20.9327 19.821 21.146 20.2264C21.37 20.621 21.7754 20.8184 22.362 20.8184C22.938 20.8184 23.3434 20.6264 23.578 20.2424C23.8127 19.8584 23.93 19.2664 23.93 18.4664V12.2584H26.682Z" fill="white"/>
</svg>
